<?xml version="1.0" encoding="utf-8"?>
<!-- Generator: Adobe Illustrator 16.0.0, SVG Export Plug-In . SVG Version: 6.00 Build 0)  -->
<!DOCTYPE svg PUBLIC "-//W3C//DTD SVG 1.1//EN" "http://www.w3.org/Graphics/SVG/1.1/DTD/svg11.dtd">
<svg version="1.1" id="Calque_1" xmlns="http://www.w3.org/2000/svg" xmlns:xlink="http://www.w3.org/1999/xlink" x="0px" y="0px"
	 width="60px" height="60px" viewBox="0 0 60 60" enable-background="new 0 0 60 60" xml:space="preserve">
<g>
	<path fill-rule="evenodd" clip-rule="evenodd" d="M59.882,36.933c-0.34,0.099-0.682,0.286-1.022,0.286
		c-14.267,0.017-28.531,0.011-42.797,0.021c-0.371,0.001-0.626-0.102-0.831-0.407c-1.136-1.718-2.302-3.418-3.414-5.15
		c-0.454-0.707-0.329-1.149,0.327-1.667c1.116-0.88,2.244-1.747,3.364-2.625c1.617-1.267,1.889-2.958,0.753-4.683
		c-0.707-1.074-1.433-2.135-2.126-3.217c-0.137-0.214-0.229-0.5-0.229-0.752c-0.013-4.95-0.011-9.899-0.009-14.85
		c0-0.776,0.117-0.898,0.872-0.898c14.752-0.001,29.504-0.003,44.256,0.014c0.286,0,0.57,0.234,0.855,0.359
		C59.882,14.552,59.882,25.742,59.882,36.933z M36.87,21.741c0.933,0.034,1.719-0.353,2.453-0.91
		c5.726-4.346,11.454-8.689,17.184-13.032c0.832-0.631,1.027-1.227,0.584-1.797c-0.447-0.576-1.039-0.547-1.888,0.097
		c-5.698,4.32-11.395,8.64-17.093,12.959c-0.996,0.754-1.466,0.752-2.451,0.005c-4.098-3.109-8.195-6.218-12.292-9.328
		c-1.661-1.26-3.319-2.523-4.984-3.778c-0.663-0.5-1.234-0.491-1.664-0.002c-0.448,0.512-0.317,1.184,0.362,1.699
		c5.849,4.442,11.703,8.881,17.557,13.317C35.291,21.465,36.021,21.758,36.87,21.741z M29.744,21.818
		c-0.278-0.325-0.476-0.694-0.785-0.887c-0.484-0.301-0.939-0.065-1.301,0.32c-3.579,3.826-7.157,7.653-10.728,11.486
		c-0.543,0.583-0.542,1.21-0.051,1.652c0.463,0.417,1.083,0.362,1.6-0.189c3.568-3.81,7.132-7.622,10.686-11.443
		C29.38,22.527,29.503,22.214,29.744,21.818z M57.312,33.41c-0.104-0.163-0.259-0.501-0.497-0.761
		c-1.395-1.522-2.812-3.027-4.222-4.538c-2.113-2.263-4.227-4.531-6.346-6.791c-0.537-0.571-1.179-0.628-1.646-0.182
		c-0.445,0.426-0.42,1.056,0.067,1.617c0.063,0.074,0.131,0.144,0.197,0.215c3.444,3.69,6.886,7.383,10.333,11.069
		c0.158,0.17,0.328,0.343,0.523,0.46C56.424,34.921,57.307,34.417,57.312,33.41z"/>
	<path fill-rule="evenodd" clip-rule="evenodd" d="M-0.006,20.908c0.114-0.588,0.228-1.176,0.341-1.765
		c0.246-1.276,0.923-2.253,2.04-2.923c1.319-0.792,2.634-1.59,3.958-2.373c0.729-0.431,1.241-0.322,1.703,0.369
		c2.167,3.238,4.326,6.48,6.481,9.727c0.475,0.715,0.4,1.187-0.276,1.722c-1.099,0.873-2.212,1.724-3.318,2.589
		c-1.62,1.262-1.893,2.743-0.941,4.578c1.929,3.718,4.679,6.788,7.623,9.704c2.205,2.183,4.483,4.283,7.136,5.927
		c0.76,0.472,1.541,0.914,2.333,1.332c1.557,0.823,3.06,0.511,4.169-0.872c0.915-1.139,1.797-2.305,2.699-3.456
		c0.565-0.722,1.052-0.809,1.81-0.306c3.212,2.136,6.421,4.277,9.627,6.422c0.772,0.518,0.877,0.973,0.404,1.772
		c-0.684,1.158-1.427,2.281-2.056,3.468c-0.899,1.699-2.336,2.45-4.175,2.691c-3.27,0.427-6.356-0.238-9.35-1.475
		c-4.356-1.798-8.14-4.499-11.681-7.549C13.871,46.484,9.606,42.104,6,37.118c-2.411-3.333-4.442-6.869-5.451-10.903
		c-0.235-0.939-0.372-1.9-0.555-2.852C-0.006,22.545-0.006,21.727-0.006,20.908z"/>
</g>
</svg>
