<?xml version="1.0" encoding="utf-8"?>
<!-- Generator: Adobe Illustrator 16.0.0, SVG Export Plug-In . SVG Version: 6.00 Build 0)  -->
<!DOCTYPE svg PUBLIC "-//W3C//DTD SVG 1.1//EN" "http://www.w3.org/Graphics/SVG/1.1/DTD/svg11.dtd">
<svg version="1.1" id="Calque_1" xmlns="http://www.w3.org/2000/svg" xmlns:xlink="http://www.w3.org/1999/xlink" x="0px" y="0px"
	 width="60px" height="60px" viewBox="0 0 60 60" enable-background="new 0 0 60 60" xml:space="preserve">
<g>
	<g>
		<circle id="XMLID_3_" opacity="0" fill="#AFAFAF" cx="33.662" cy="35.229" r="25.055"/>
		<path opacity="0.0244" fill="#AFAFAF" d="M58.519,34.987c0-13.835-11.215-25.054-25.053-25.054
			C19.627,9.934,8.41,21.152,8.41,34.987c0,13.838,11.217,25.058,25.056,25.058C47.304,60.045,58.519,48.825,58.519,34.987z"/>
		<path opacity="0.0488" fill="#AFAFAF" d="M58.322,34.746c0-13.836-11.217-25.053-25.054-25.053
			C19.43,9.693,8.212,20.91,8.212,34.746c0,13.837,11.218,25.058,25.057,25.058C47.105,59.804,58.322,48.583,58.322,34.746z"/>
		<path opacity="0.0732" fill="#AFAFAF" d="M58.125,34.504c0-13.835-11.217-25.053-25.054-25.053
			c-13.838,0-25.056,11.218-25.056,25.053c0,13.838,11.218,25.059,25.056,25.059C46.908,59.563,58.125,48.342,58.125,34.504z"/>
		<circle opacity="0.0976" fill="#AFAFAF" cx="32.872" cy="34.263" r="25.055"/>
		<circle opacity="0.122" fill="#AFAFAF" cx="32.675" cy="34.021" r="25.055"/>
		<circle opacity="0.1463" fill="#AFAFAF" cx="32.477" cy="33.779" r="25.055"/>
		<path opacity="0.1707" fill="#AFAFAF" d="M57.335,33.537c0-13.836-11.216-25.053-25.054-25.053
			c-13.838,0-25.057,11.217-25.057,25.053c0,13.838,11.218,25.059,25.057,25.059C46.119,58.596,57.335,47.375,57.335,33.537z"/>
		<circle opacity="0.1951" fill="#AFAFAF" cx="32.082" cy="33.296" r="25.055"/>
		<circle opacity="0.2195" fill="#AFAFAF" cx="31.885" cy="33.055" r="25.055"/>
		<circle opacity="0.2439" fill="#AFAFAF" cx="31.688" cy="32.813" r="25.055"/>
		<circle opacity="0.2683" fill="#AFAFAF" cx="31.49" cy="32.571" r="25.055"/>
		<path opacity="0.2927" fill="#AFAFAF" d="M56.347,32.328c0-13.835-11.216-25.053-25.054-25.053S6.237,18.493,6.237,32.328
			c0,13.838,11.218,25.059,25.056,25.059S56.347,46.166,56.347,32.328z"/>
		<circle opacity="0.3171" fill="#AFAFAF" cx="31.095" cy="32.088" r="25.055"/>
		<path opacity="0.3415" fill="#AFAFAF" d="M55.953,31.846c0-13.836-11.216-25.053-25.054-25.053
			c-13.839,0-25.057,11.217-25.057,25.053c0,13.838,11.218,25.058,25.057,25.058C44.737,56.903,55.953,45.684,55.953,31.846z"/>
		<circle opacity="0.3659" fill="#AFAFAF" cx="30.7" cy="31.604" r="25.055"/>
		<path opacity="0.3902" fill="#AFAFAF" d="M55.557,31.361c0-13.836-11.215-25.053-25.053-25.053
			c-13.838,0-25.057,11.217-25.057,25.053c0,13.838,11.218,25.059,25.057,25.059C44.342,56.42,55.557,45.199,55.557,31.361z"/>
		<path opacity="0.4146" fill="#AFAFAF" d="M55.36,31.12c0-13.836-11.216-25.053-25.054-25.053C16.468,6.067,5.25,17.284,5.25,31.12
			c0,13.838,11.218,25.058,25.056,25.058C44.145,56.178,55.36,44.958,55.36,31.12z"/>
		<path opacity="0.439" fill="#AFAFAF" d="M55.163,30.879c0-13.836-11.216-25.053-25.054-25.053
			c-13.838,0-25.056,11.217-25.056,25.053c0,13.838,11.218,25.058,25.056,25.058C43.947,55.937,55.163,44.717,55.163,30.879z"/>
		<path opacity="0.4634" fill="#AFAFAF" d="M54.965,30.637c0-13.836-11.216-25.053-25.053-25.053
			c-13.838,0-25.056,11.217-25.056,25.053c0,13.838,11.218,25.058,25.056,25.058C43.749,55.694,54.965,44.475,54.965,30.637z"/>
		<circle opacity="0.4878" fill="#AFAFAF" cx="29.713" cy="30.396" r="25.055"/>
		<circle opacity="0.5122" fill="#AFAFAF" cx="29.516" cy="30.154" r="25.055"/>
		<circle opacity="0.5366" fill="#AFAFAF" cx="29.318" cy="29.912" r="25.055"/>
		<path opacity="0.561" fill="#AFAFAF" d="M54.176,29.67c0-13.836-11.216-25.053-25.054-25.053
			c-13.838,0-25.056,11.217-25.056,25.053c0,13.837,11.218,25.058,25.056,25.058C42.96,54.729,54.176,43.508,54.176,29.67z"/>
		<circle opacity="0.5854" fill="#AFAFAF" cx="28.923" cy="29.429" r="25.055"/>
		<path opacity="0.6098" fill="#AFAFAF" d="M53.78,29.187c0-13.836-11.216-25.052-25.054-25.052S3.671,15.351,3.671,29.187
			c0,13.839,11.218,25.058,25.056,25.058S53.78,43.025,53.78,29.187z"/>
		<circle opacity="0.6341" fill="#AFAFAF" cx="28.528" cy="28.945" r="25.055"/>
		<circle opacity="0.6585" fill="#AFAFAF" cx="28.331" cy="28.704" r="25.055"/>
		<path opacity="0.6829" fill="#AFAFAF" d="M53.188,28.462c0-13.836-11.216-25.053-25.054-25.053
			c-13.838,0-25.057,11.217-25.057,25.053c0,13.838,11.218,25.058,25.057,25.058C41.973,53.52,53.188,42.3,53.188,28.462z"/>
		<path opacity="0.7073" fill="#AFAFAF" d="M52.99,28.22c0-13.836-11.215-25.052-25.054-25.052
			c-13.838,0-25.056,11.216-25.056,25.052c0,13.838,11.218,25.058,25.056,25.058C41.775,53.277,52.99,42.058,52.99,28.22z"/>
		<circle opacity="0.7317" fill="#AFAFAF" cx="27.738" cy="27.979" r="25.055"/>
		<circle opacity="0.7561" fill="#AFAFAF" cx="27.541" cy="27.737" r="25.055"/>
		<circle opacity="0.7805" fill="#AFAFAF" cx="27.344" cy="27.495" r="25.055"/>
		<circle opacity="0.8049" fill="#AFAFAF" cx="27.146" cy="27.253" r="25.055"/>
		<path opacity="0.8293" fill="#AFAFAF" d="M52.003,27.012c0-13.836-11.216-25.053-25.053-25.053
			c-13.838,0-25.056,11.216-25.056,25.053c0,13.838,11.218,25.058,25.056,25.058C40.787,52.069,52.003,40.85,52.003,27.012z"/>
		<circle opacity="0.8537" fill="#AFAFAF" cx="26.751" cy="26.77" r="25.054"/>
		<path opacity="0.878" fill="#AFAFAF" d="M51.608,26.528c0-13.836-11.216-25.052-25.054-25.052S1.499,12.692,1.499,26.528
			c0,13.839,11.218,25.058,25.056,25.058S51.608,40.367,51.608,26.528z"/>
		<circle opacity="0.9024" fill="#AFAFAF" cx="26.356" cy="26.287" r="25.055"/>
		<path opacity="0.9268" fill="#AFAFAF" d="M51.214,26.045c0-13.836-11.217-25.052-25.054-25.052
			c-13.838,0-25.056,11.216-25.056,25.052c0,13.839,11.218,25.057,25.056,25.057C39.997,51.102,51.214,39.884,51.214,26.045z"/>
		<path opacity="0.9512" fill="#AFAFAF" d="M51.016,25.803c0-13.836-11.216-25.052-25.053-25.052
			c-13.838,0-25.056,11.216-25.056,25.052c0,13.838,11.218,25.057,25.056,25.057C39.8,50.86,51.016,39.642,51.016,25.803z"/>
		<path opacity="0.9756" fill="#AFAFAF" d="M50.818,25.562c0-13.836-11.216-25.052-25.054-25.052
			c-13.837,0-25.056,11.216-25.056,25.052c0,13.839,11.218,25.057,25.056,25.057C39.603,50.618,50.818,39.4,50.818,25.562z"/>
		<circle id="XMLID_2_" fill="#AFAFAF" cx="25.566" cy="25.32" r="25.055"/>
	</g>
	<g>
		<circle id="XMLID_21_" fill="#395196" cx="25.566" cy="25.32" r="25.055"/>
		<path id="XMLID_19_" fill="#FFFFFF" d="M27.774,19.387v-2.373c0-1.156,0.771-1.427,1.311-1.427c0.543,0,3.332,0,3.332,0v-5.082
			l-4.585-0.021c-5.092,0-6.246,3.794-6.246,6.221v2.682h-2.943v5.936h2.969c0,6.728,0,14.839,0,14.839h5.934c0,0,0-8.193,0-14.839
			h4.406l0.542-5.936H27.774z"/>
	</g>
</g>
</svg>
