<?xml version="1.0" encoding="utf-8"?>
<!-- Generator: Adobe Illustrator 16.0.0, SVG Export Plug-In . SVG Version: 6.00 Build 0)  -->
<!DOCTYPE svg PUBLIC "-//W3C//DTD SVG 1.1//EN" "http://www.w3.org/Graphics/SVG/1.1/DTD/svg11.dtd">
<svg version="1.1" id="Calque_1" xmlns="http://www.w3.org/2000/svg" xmlns:xlink="http://www.w3.org/1999/xlink" x="0px" y="0px"
	 width="60px" height="60px" viewBox="0 0 60 60" enable-background="new 0 0 60 60" xml:space="preserve">
<path fill-rule="evenodd" clip-rule="evenodd" d="M28.679,0.547c0.915,0,1.831,0,2.745,0c0.104,0.019,0.205,0.044,0.311,0.055
	c0.781,0.083,1.568,0.13,2.344,0.248c7.201,1.095,13.152,4.466,17.764,10.064c5.523,6.704,7.668,14.458,6.584,23.059
	c-0.871,6.905-3.836,12.836-8.906,17.603c-6.695,6.299-14.676,8.869-23.785,7.533c-7.068-1.037-12.93-4.428-17.457-9.927
	c-6.215-7.55-8.273-16.239-6.189-25.757C4.002,14.681,9.032,8.115,16.912,3.807c3.122-1.707,6.484-2.705,10.026-3.084
	C27.518,0.661,28.098,0.605,28.679,0.547z M25.029,42.338c-0.17-0.027-0.272-0.047-0.375-0.06c-1.333-0.165-2.643-0.434-3.92-0.85
	c-3.397-1.106-5.847-3.229-7.087-6.639c-0.676-1.86-0.906-3.795-0.958-5.763c-0.077-2.923,0.722-5.542,2.634-7.791
	c0.07-0.084,0.109-0.256,0.076-0.359c-0.754-2.348-0.549-4.657,0.25-6.948c0.07-0.203,0.18-0.282,0.39-0.294
	c0.723-0.043,1.421,0.083,2.106,0.29c1.729,0.522,3.273,1.412,4.759,2.417c0.191,0.129,0.358,0.209,0.612,0.141
	c4.304-1.166,8.615-1.159,12.921-0.026c0.289,0.076,0.492,0.031,0.73-0.133c1.15-0.792,2.352-1.496,3.65-2.017
	c1.012-0.405,2.043-0.73,3.156-0.673c0.219,0.012,0.354,0.082,0.414,0.306c0.076,0.287,0.191,0.563,0.271,0.85
	c0.539,1.947,0.637,3.902,0.037,5.852c-0.102,0.329-0.057,0.528,0.16,0.786c1.186,1.413,1.984,3.029,2.275,4.852
	c0.488,3.074,0.207,6.09-0.938,8.995c-0.9,2.282-2.463,4-4.619,5.176c-1.492,0.814-3.102,1.276-4.762,1.582
	c-0.59,0.108-1.186,0.188-1.777,0.28c0.277,0.387,0.57,0.736,0.801,1.125c0.777,1.317,0.959,2.776,0.953,4.273
	c-0.01,2.425-0.021,4.851-0.029,7.274c-0.004,1.207,0.871,1.822,2.021,1.422c2.621-0.912,5.061-2.182,7.256-3.879
	c6.771-5.234,10.471-12.149,11.086-20.671c0.416-5.779-0.889-11.198-3.813-16.208C47.582,5.829,36.67,0.674,25.536,2.522
	c-4.156,0.69-7.945,2.288-11.309,4.813C7.608,12.302,3.856,18.951,3,27.162c-0.687,6.592,0.792,12.735,4.419,18.304
	c3.371,5.179,7.985,8.827,13.813,10.919c1.174,0.422,2.067-0.205,2.061-1.438c-0.008-1.416-0.021-2.83-0.035-4.244
	c-0.001-0.1-0.016-0.198-0.019-0.229c-1.044,0.073-2.049,0.206-3.052,0.199c-1.701-0.011-3.242-0.534-4.523-1.701
	c-0.789-0.718-1.288-1.614-1.682-2.599c-0.638-1.598-1.535-3.013-3.057-3.934c-0.153-0.093-0.294-0.213-0.422-0.34
	c-0.23-0.229-0.566-0.451-0.435-0.819c0.128-0.357,0.523-0.365,0.847-0.393c0.969-0.084,1.82,0.259,2.604,0.785
	c0.845,0.568,1.485,1.327,1.998,2.203c0.604,1.029,1.381,1.896,2.479,2.409c1.764,0.822,3.504,0.539,5.219-0.184
	c0.068-0.029,0.133-0.14,0.146-0.221C23.57,44.562,24.036,43.361,25.029,42.338z"/>
</svg>
