<?xml version="1.0" encoding="utf-8"?>
<!-- Generator: Adobe Illustrator 16.0.0, SVG Export Plug-In . SVG Version: 6.00 Build 0)  -->
<!DOCTYPE svg PUBLIC "-//W3C//DTD SVG 1.1//EN" "http://www.w3.org/Graphics/SVG/1.1/DTD/svg11.dtd">
<svg version="1.1" id="Calque_1" xmlns="http://www.w3.org/2000/svg" xmlns:xlink="http://www.w3.org/1999/xlink" x="0px" y="0px"
	 width="60px" height="60px" viewBox="0 0 60 60" enable-background="new 0 0 60 60" xml:space="preserve">
<g>
	<path fill-rule="evenodd" clip-rule="evenodd" d="M0.118,30.351c1.998-1.745,4.001-3.482,5.992-5.234
		c8.015-7.054,16.025-14.113,24.039-21.169c0.145-0.127,0.297-0.245,0.477-0.392c0.985,0.891,1.953,1.764,2.919,2.639
		c8.795,7.969,17.59,15.938,26.385,23.906c0.057,0.051,0.125,0.089,0.188,0.134c0,0.039,0,0.078,0,0.117
		c-1.547,1.607-2.96,1.87-4.977,0.823c-0.753-0.391-1.485-0.874-2.117-1.438c-7.338-6.55-14.654-13.123-21.978-19.689
		c-0.13-0.117-0.267-0.226-0.442-0.375c-1.016,0.857-2.028,1.708-3.038,2.562c-7.092,5.999-14.182,11.999-21.276,17.994
		c-0.357,0.302-0.727,0.594-1.12,0.846c-2.041,1.305-3.439,1.131-5.05-0.606C0.118,30.429,0.118,30.39,0.118,30.351z"/>
	<path fill-rule="evenodd" clip-rule="evenodd" d="M30.436,13.578c1.581,1.404,3.156,2.803,4.73,4.202
		c5.223,4.645,10.441,9.293,15.673,13.928c0.337,0.299,0.472,0.598,0.471,1.047c-0.014,7.264-0.008,14.526-0.016,21.789
		c0,0.366-0.041,0.744-0.139,1.096c-0.163,0.584-0.588,0.9-1.193,0.959c-0.194,0.02-0.39,0.026-0.585,0.026
		c-4.627,0.001-9.255,0.001-13.882,0c-0.172,0-0.344-0.016-0.585-0.027c0-0.252,0-0.479,0-0.707
		c0.004-3.768,0.01-7.536,0.013-11.305c0.001-1.547-0.559-2.256-2.076-2.306c-2.184-0.072-4.372-0.049-6.557,0.006
		c-1.025,0.025-1.53,0.628-1.597,1.653c-0.017,0.253-0.007,0.508-0.008,0.762c-0.012,3.748-0.023,7.497-0.034,11.245
		c-0.001,0.213,0,0.425,0,0.707c-0.249,0.012-0.454,0.031-0.659,0.031c-4.686,0.008-9.372,0.014-14.058,0.018
		c-1.261,0.001-1.646-0.38-1.646-1.641c-0.002-7.479-0.005-14.956,0.015-22.434c0-0.279,0.17-0.644,0.384-0.823
		c7.108-5.984,14.232-11.951,21.354-17.918C30.159,13.787,30.284,13.695,30.436,13.578z"/>
	<path fill-rule="evenodd" clip-rule="evenodd" d="M47.136,9.638c1.99,0,3.913,0,5.865,0c0,4.012,0,7.997,0,12.092
		c-0.502-0.421-0.93-0.776-1.354-1.135c-1.384-1.171-2.771-2.339-4.144-3.523c-0.161-0.139-0.35-0.365-0.351-0.553
		C47.128,14.241,47.136,11.963,47.136,9.638z"/>
</g>
</svg>
