<?xml version="1.0" encoding="utf-8"?>
<!-- Generator: Adobe Illustrator 16.0.0, SVG Export Plug-In . SVG Version: 6.00 Build 0)  -->
<!DOCTYPE svg PUBLIC "-//W3C//DTD SVG 1.1//EN" "http://www.w3.org/Graphics/SVG/1.1/DTD/svg11.dtd">
<svg version="1.1" id="Calque_1" xmlns="http://www.w3.org/2000/svg" xmlns:xlink="http://www.w3.org/1999/xlink" x="0px" y="0px"
	 width="60px" height="60px" viewBox="0 0 60 60" enable-background="new 0 0 60 60" xml:space="preserve">
<path fill-rule="evenodd" clip-rule="evenodd" d="M28.359,0.117c1.172,0,2.343,0,3.515,0c0.151,0.033,0.3,0.086,0.452,0.097
	c4.186,0.286,8.149,1.387,11.82,3.405c8.479,4.663,13.666,11.759,15.496,21.276c0.22,1.143,0.318,2.309,0.474,3.464
	c0,1.172,0,2.343,0,3.515c-0.034,0.169-0.088,0.337-0.101,0.508c-0.333,4.675-1.656,9.06-4.122,13.037
	c-5.636,9.092-13.836,14.023-24.52,14.651c-5.412,0.317-10.571-0.86-15.328-3.478C7.587,51.938,2.417,44.838,0.591,35.34
	c-0.22-1.144-0.319-2.31-0.474-3.466c0-1.172,0-2.343,0-3.515c0.034-0.169,0.088-0.336,0.1-0.507
	c0.292-4.185,1.399-8.149,3.424-11.814C8.31,7.59,15.396,2.415,24.891,0.591C26.035,0.371,27.202,0.272,28.359,0.117z M21.106,28.06
	c0.245-0.069,0.41-0.106,0.569-0.163c1.118-0.401,2.252-0.624,3.443-0.369c0.833,0.179,1.307,0.548,1.348,1.384
	c0.046,0.942,0.03,1.922-0.18,2.835c-0.472,2.049-1.068,4.07-1.639,6.097c-0.519,1.841-1.042,3.679-1.09,5.61
	c-0.05,2.003,1.012,3.673,2.831,4.445c1.562,0.663,3.219,0.794,4.824,0.42c1.679-0.392,3.291-1.07,4.928-1.635
	c0.109-0.038,0.236-0.164,0.266-0.272c0.161-0.597,0.294-1.201,0.435-1.799c-0.882,0.189-1.703,0.436-2.542,0.532
	c-2.335,0.269-3.366-0.767-2.912-3.07c0.433-2.195,1.042-4.356,1.608-6.522c0.532-2.034,1.243-4.024,1.308-6.162
	c0.053-1.754-0.452-3.233-1.954-4.253c-1.509-1.024-3.216-1.136-4.95-0.941c-1.938,0.217-3.719,0.997-5.517,1.697
	c-0.136,0.053-0.284,0.211-0.324,0.35C21.392,26.816,21.266,27.4,21.106,28.06z M32.845,11.604c-0.552,0.108-1.118,0.165-1.65,0.333
	c-2.678,0.848-3.861,3.948-2.331,6.23c1.116,1.667,2.771,2.238,4.734,1.993c2.303-0.287,4.02-2.498,3.706-4.786
	C37.018,13.274,35.174,11.738,32.845,11.604z"/>
</svg>
