<?xml version="1.0" encoding="utf-8"?>
<!-- Generator: Adobe Illustrator 16.0.0, SVG Export Plug-In . SVG Version: 6.00 Build 0)  -->
<!DOCTYPE svg PUBLIC "-//W3C//DTD SVG 1.1//EN" "http://www.w3.org/Graphics/SVG/1.1/DTD/svg11.dtd">
<svg version="1.1" id="Calque_1" xmlns="http://www.w3.org/2000/svg" xmlns:xlink="http://www.w3.org/1999/xlink" x="0px" y="0px"
	 width="60px" height="60px" viewBox="0 0 60 60" enable-background="new 0 0 60 60" xml:space="preserve">
<g>
	<g>
		<path id="XMLID_2_" opacity="0" fill="#AFAFAF" d="M496.794,489.703c0-39.661-32.149-71.81-71.806-71.81
			c-39.666,0-71.814,32.148-71.814,71.81c0,39.655,32.148,71.81,71.814,71.81C464.645,561.513,496.794,529.358,496.794,489.703z"/>
		<path opacity="0.0244" fill="#AFAFAF" d="M496.228,489.01c0-39.66-32.149-71.81-71.806-71.81
			c-39.666,0-71.814,32.149-71.814,71.81c0,39.656,32.148,71.81,71.814,71.81C464.078,560.819,496.228,528.666,496.228,489.01z"/>
		<path opacity="0.0488" fill="#AFAFAF" d="M495.662,488.318c0-39.662-32.149-71.811-71.806-71.811
			c-39.666,0-71.814,32.148-71.814,71.811c0,39.655,32.148,71.81,71.814,71.81C463.513,560.128,495.662,527.974,495.662,488.318z"/>
		<path opacity="0.0732" fill="#AFAFAF" d="M495.097,487.625c0-39.661-32.149-71.81-71.806-71.81
			c-39.666,0-71.814,32.148-71.814,71.81c0,39.655,32.148,71.81,71.814,71.81C462.947,559.435,495.097,527.28,495.097,487.625z"/>
		<path opacity="0.0976" fill="#AFAFAF" d="M494.53,486.933c0-39.662-32.149-71.81-71.806-71.81
			c-39.666,0-71.814,32.147-71.814,71.81c0,39.654,32.148,71.81,71.814,71.81C462.381,558.742,494.53,526.587,494.53,486.933z"/>
		<path opacity="0.122" fill="#AFAFAF" d="M493.965,486.239c0-39.661-32.149-71.81-71.806-71.81
			c-39.666,0-71.814,32.148-71.814,71.81c0,39.655,32.148,71.81,71.814,71.81C461.815,558.049,493.965,525.895,493.965,486.239z"/>
		<path opacity="0.1463" fill="#AFAFAF" d="M493.398,485.547c0-39.661-32.148-71.81-71.805-71.81
			c-39.667,0-71.815,32.148-71.815,71.81c0,39.655,32.148,71.81,71.815,71.81C461.25,557.356,493.398,525.202,493.398,485.547z"/>
		<path opacity="0.1707" fill="#AFAFAF" d="M492.833,484.854c0-39.662-32.15-71.811-71.806-71.811
			c-39.666,0-71.814,32.148-71.814,71.811c0,39.655,32.148,71.81,71.814,71.81C460.683,556.664,492.833,524.51,492.833,484.854z"/>
		<path opacity="0.1951" fill="#AFAFAF" d="M492.267,484.161c0-39.661-32.149-71.81-71.806-71.81
			c-39.666,0-71.814,32.148-71.814,71.81c0,39.655,32.148,71.81,71.814,71.81C460.117,555.971,492.267,523.816,492.267,484.161z"/>
		<path opacity="0.2195" fill="#AFAFAF" d="M491.701,483.469c0-39.661-32.15-71.81-71.806-71.81
			c-39.666,0-71.814,32.148-71.814,71.81c0,39.655,32.148,71.81,71.814,71.81C459.551,555.278,491.701,523.124,491.701,483.469z"/>
		<path opacity="0.2439" fill="#AFAFAF" d="M491.135,482.776c0-39.661-32.149-71.81-71.805-71.81
			c-39.666,0-71.815,32.148-71.815,71.81c0,39.655,32.149,71.81,71.815,71.81C458.985,554.586,491.135,522.432,491.135,482.776z"/>
		<path opacity="0.2683" fill="#AFAFAF" d="M490.569,482.084c0-39.662-32.149-71.811-71.806-71.811
			c-39.666,0-71.814,32.148-71.814,71.811c0,39.654,32.148,71.809,71.814,71.809C458.42,553.893,490.569,521.738,490.569,482.084z"
			/>
		<path opacity="0.2927" fill="#AFAFAF" d="M490.003,481.391c0-39.662-32.149-71.81-71.806-71.81
			c-39.666,0-71.814,32.147-71.814,71.81c0,39.655,32.148,71.809,71.814,71.809C457.854,553.199,490.003,521.046,490.003,481.391z"
			/>
		<path opacity="0.3171" fill="#AFAFAF" d="M489.438,480.697c0-39.661-32.15-71.809-71.806-71.809
			c-39.666,0-71.814,32.147-71.814,71.809c0,39.656,32.148,71.81,71.814,71.81C457.287,552.507,489.438,520.354,489.438,480.697z"/>
		<path opacity="0.3415" fill="#AFAFAF" d="M488.872,480.005c0-39.661-32.15-71.81-71.806-71.81
			c-39.666,0-71.814,32.148-71.814,71.81c0,39.655,32.148,71.811,71.814,71.811C456.722,551.815,488.872,519.66,488.872,480.005z"/>
		<path opacity="0.3659" fill="#AFAFAF" d="M488.306,479.313c0-39.662-32.149-71.81-71.806-71.81
			c-39.666,0-71.814,32.147-71.814,71.81c0,39.655,32.148,71.81,71.814,71.81C456.156,551.122,488.306,518.968,488.306,479.313z"/>
		<path opacity="0.3902" fill="#AFAFAF" d="M487.74,478.619c0-39.661-32.15-71.809-71.807-71.809
			c-39.666,0-71.814,32.147-71.814,71.809c0,39.656,32.148,71.81,71.814,71.81C455.59,550.429,487.74,518.275,487.74,478.619z"/>
		<path opacity="0.4146" fill="#AFAFAF" d="M487.174,477.927c0-39.661-32.15-71.81-71.806-71.81
			c-39.666,0-71.814,32.148-71.814,71.81c0,39.655,32.148,71.81,71.814,71.81C455.023,549.736,487.174,517.582,487.174,477.927z"/>
		<path opacity="0.439" fill="#AFAFAF" d="M486.608,477.234c0-39.661-32.149-71.81-71.806-71.81
			c-39.666,0-71.814,32.148-71.814,71.81c0,39.655,32.148,71.81,71.814,71.81C454.459,549.044,486.608,516.89,486.608,477.234z"/>
		<path opacity="0.4634" fill="#AFAFAF" d="M486.042,476.542c0-39.662-32.149-71.811-71.806-71.811
			c-39.666,0-71.814,32.148-71.814,71.811c0,39.655,32.148,71.81,71.814,71.81C453.893,548.352,486.042,516.197,486.042,476.542z"/>
		<path opacity="0.4878" fill="#AFAFAF" d="M485.477,475.849c0-39.662-32.15-71.81-71.807-71.81
			c-39.666,0-71.814,32.147-71.814,71.81c0,39.655,32.148,71.81,71.814,71.81C453.326,547.658,485.477,515.504,485.477,475.849z"/>
		<path opacity="0.5122" fill="#AFAFAF" d="M484.91,475.156c0-39.662-32.15-71.81-71.805-71.81
			c-39.667,0-71.815,32.147-71.815,71.81c0,39.655,32.148,71.81,71.815,71.81C452.76,546.966,484.91,514.812,484.91,475.156z"/>
		<path opacity="0.5366" fill="#AFAFAF" d="M484.344,474.463c0-39.661-32.149-71.809-71.805-71.809
			c-39.666,0-71.814,32.147-71.814,71.809c0,39.656,32.148,71.811,71.814,71.811C452.194,546.273,484.344,514.119,484.344,474.463z"
			/>
		<path opacity="0.561" fill="#AFAFAF" d="M483.778,473.771c0-39.661-32.149-71.81-71.806-71.81
			c-39.666,0-71.814,32.148-71.814,71.81c0,39.655,32.148,71.81,71.814,71.81C451.629,545.58,483.778,513.426,483.778,473.771z"/>
		<path opacity="0.5854" fill="#AFAFAF" d="M483.213,473.078c0-39.662-32.15-71.81-71.806-71.81
			c-39.666,0-71.814,32.147-71.814,71.81c0,39.654,32.148,71.81,71.814,71.81C451.063,544.888,483.213,512.732,483.213,473.078z"/>
		<path opacity="0.6098" fill="#AFAFAF" d="M482.646,472.386c0-39.662-32.149-71.81-71.805-71.81
			c-39.666,0-71.815,32.147-71.815,71.81c0,39.654,32.149,71.81,71.815,71.81C450.497,544.195,482.646,512.04,482.646,472.386z"/>
		<path opacity="0.6341" fill="#AFAFAF" d="M482.081,471.692c0-39.661-32.149-71.81-71.806-71.81
			c-39.666,0-71.814,32.148-71.814,71.81c0,39.655,32.148,71.81,71.814,71.81C449.932,543.502,482.081,511.348,482.081,471.692z"/>
		<path opacity="0.6585" fill="#AFAFAF" d="M481.515,471c0-39.662-32.149-71.81-71.806-71.81c-39.666,0-71.814,32.147-71.814,71.81
			c0,39.655,32.148,71.81,71.814,71.81C449.365,542.81,481.515,510.655,481.515,471z"/>
		<path opacity="0.6829" fill="#AFAFAF" d="M480.949,470.307c0-39.661-32.15-71.81-71.806-71.81
			c-39.666,0-71.814,32.148-71.814,71.81c0,39.656,32.148,71.811,71.814,71.811C448.799,542.117,480.949,509.963,480.949,470.307z"
			/>
		<path opacity="0.7073" fill="#AFAFAF" d="M480.383,469.614c0-39.661-32.149-71.81-71.805-71.81
			c-39.666,0-71.814,32.148-71.814,71.81c0,39.655,32.148,71.81,71.814,71.81C448.233,541.424,480.383,509.27,480.383,469.614z"/>
		<path opacity="0.7317" fill="#AFAFAF" d="M479.817,468.922c0-39.662-32.149-71.811-71.806-71.811
			c-39.666,0-71.814,32.148-71.814,71.811c0,39.655,32.148,71.81,71.814,71.81C447.668,540.731,479.817,508.577,479.817,468.922z"/>
		<path opacity="0.7561" fill="#AFAFAF" d="M479.252,468.229c0-39.662-32.15-71.81-71.806-71.81
			c-39.666,0-71.815,32.147-71.815,71.81c0,39.655,32.149,71.811,71.815,71.811C447.102,540.039,479.252,507.884,479.252,468.229z"
			/>
		<path opacity="0.7805" fill="#AFAFAF" d="M478.686,467.536c0-39.662-32.15-71.81-71.806-71.81
			c-39.666,0-71.814,32.147-71.814,71.81c0,39.655,32.148,71.81,71.814,71.81C446.535,539.346,478.686,507.191,478.686,467.536z"/>
		<path opacity="0.8049" fill="#AFAFAF" d="M478.12,466.844c0-39.662-32.15-71.81-71.806-71.81
			c-39.666,0-71.814,32.147-71.814,71.81c0,39.655,32.148,71.81,71.814,71.81C445.97,538.653,478.12,506.499,478.12,466.844z"/>
		<path opacity="0.8293" fill="#AFAFAF" d="M477.554,466.15c0-39.661-32.149-71.809-71.806-71.809
			c-39.666,0-71.814,32.147-71.814,71.809c0,39.655,32.148,71.81,71.814,71.81C445.404,537.96,477.554,505.806,477.554,466.15z"/>
		<path opacity="0.8537" fill="#AFAFAF" d="M476.988,465.458c0-39.662-32.15-71.81-71.806-71.81
			c-39.666,0-71.814,32.147-71.814,71.81c0,39.655,32.148,71.81,71.814,71.81C444.838,537.268,476.988,505.113,476.988,465.458z"/>
		<path opacity="0.878" fill="#AFAFAF" d="M476.422,464.766c0-39.662-32.15-71.81-71.806-71.81
			c-39.666,0-71.814,32.147-71.814,71.81c0,39.655,32.148,71.81,71.814,71.81C444.271,536.575,476.422,504.421,476.422,464.766z"/>
		<path opacity="0.9024" fill="#AFAFAF" d="M475.856,464.072c0-39.661-32.15-71.809-71.806-71.809
			c-39.666,0-71.814,32.147-71.814,71.809c0,39.656,32.148,71.81,71.814,71.81C443.706,535.882,475.856,503.729,475.856,464.072z"/>
		<path opacity="0.9268" fill="#AFAFAF" d="M475.29,463.38c0-39.662-32.149-71.81-71.806-71.81
			c-39.666,0-71.814,32.147-71.814,71.81c0,39.655,32.148,71.81,71.814,71.81C443.141,535.189,475.29,503.035,475.29,463.38z"/>
		<path opacity="0.9512" fill="#AFAFAF" d="M474.725,462.688c0-39.662-32.15-71.81-71.806-71.81
			c-39.666,0-71.814,32.147-71.814,71.81c0,39.655,32.148,71.81,71.814,71.81C442.574,534.497,474.725,502.343,474.725,462.688z"/>
		<path opacity="0.9756" fill="#AFAFAF" d="M474.158,461.994c0-39.661-32.15-71.81-71.806-71.81
			c-39.666,0-71.814,32.148-71.814,71.81c0,39.656,32.148,71.81,71.814,71.81C442.008,533.804,474.158,501.65,474.158,461.994z"/>
		<path id="XMLID_1_" fill="#AFAFAF" d="M473.593,461.302c0-39.662-32.15-71.81-71.806-71.81c-39.666,0-71.814,32.147-71.814,71.81
			c0,39.655,32.148,71.81,71.814,71.81C441.442,533.111,473.593,500.957,473.593,461.302z"/>
	</g>
	<g>
		<path id="XMLID_108_" fill="#3D83D9" d="M473.593,461.302c0-39.662-32.15-71.81-71.806-71.81
			c-39.666,0-71.814,32.147-71.814,71.81c0,39.655,32.148,71.81,71.814,71.81C441.442,533.111,473.593,500.957,473.593,461.302z"/>
		<g>
			<rect x="367.592" y="443.776" fill="#FFFFFF" width="16.623" height="47.507"/>
			<path fill="#FFFFFF" d="M375.904,420.023c-5.207,0-9.283,4.785-8.109,10.174c0.683,3.132,3.236,5.648,6.378,6.279
				c5.357,1.076,10.042-2.979,10.042-8.143C384.215,423.752,380.5,420.023,375.904,420.023z"/>
			<path fill="#FFFFFF" d="M438.849,458.37c-1.118-8.954-5.597-14.594-17.702-14.594c-8.591,0-12.006,1.341-13.977,5.09l0,0v-5.09
				h-13.457v47.507h13.849v-24.868c0-6.208,1.177-10.897,8.852-10.897c7.566,0,8.174,5.771,8.174,11.3v24.466h14.262
				C438.849,491.283,439.112,460.463,438.849,458.37z"/>
		</g>
	</g>
</g>
<g>
	<g>
		<path opacity="0" fill="#AFAFAF" d="M33.738,10.314c-13.719,0-24.841,11.124-24.841,24.847c0,13.718,11.122,24.841,24.841,24.841
			c13.718,0,24.841-11.123,24.841-24.841C58.579,21.438,47.456,10.314,33.738,10.314z"/>
		<path opacity="0.0244" fill="#AFAFAF" d="M33.542,10.074c-13.718,0-24.84,11.125-24.84,24.848
			c0,13.718,11.123,24.841,24.84,24.841c13.719,0,24.841-11.123,24.841-24.841C58.383,21.199,47.261,10.074,33.542,10.074z"/>
		<path opacity="0.0488" fill="#AFAFAF" d="M33.348,9.835c-13.719,0-24.841,11.124-24.841,24.847
			c0,13.718,11.122,24.841,24.841,24.841c13.718,0,24.841-11.123,24.841-24.841C58.188,20.959,47.065,9.835,33.348,9.835z"/>
		<path opacity="0.0732" fill="#AFAFAF" d="M33.152,9.596c-13.719,0-24.841,11.124-24.841,24.847
			c0,13.718,11.122,24.841,24.841,24.841c13.717,0,24.84-11.123,24.84-24.841C57.992,20.72,46.869,9.596,33.152,9.596z"/>
		<path opacity="0.0976" fill="#AFAFAF" d="M32.956,9.356c-13.719,0-24.841,11.124-24.841,24.848
			c0,13.718,11.122,24.84,24.841,24.84c13.718,0,24.841-11.122,24.841-24.84C57.797,20.48,46.674,9.356,32.956,9.356z"/>
		<path opacity="0.122" fill="#AFAFAF" d="M32.761,9.118C19.042,9.118,7.92,20.241,7.92,33.965
			c0,13.718,11.122,24.841,24.841,24.841c13.718,0,24.841-11.123,24.841-24.841C57.602,20.241,46.479,9.118,32.761,9.118z"/>
		<path opacity="0.1463" fill="#AFAFAF" d="M32.565,8.878c-13.718,0-24.841,11.124-24.841,24.848
			c0,13.718,11.123,24.841,24.841,24.841c13.718,0,24.841-11.123,24.841-24.841C57.406,20.002,46.283,8.878,32.565,8.878z"/>
		<path opacity="0.1707" fill="#AFAFAF" d="M32.369,8.639c-13.718,0-24.84,11.124-24.84,24.847c0,13.719,11.122,24.842,24.84,24.842
			c13.719,0,24.841-11.123,24.841-24.842C57.21,19.763,46.088,8.639,32.369,8.639z"/>
		<path opacity="0.1951" fill="#AFAFAF" d="M32.174,8.399c-13.718,0-24.841,11.123-24.841,24.847
			c0,13.718,11.123,24.841,24.841,24.841c13.718,0,24.841-11.123,24.841-24.841C57.015,19.522,45.892,8.399,32.174,8.399z"/>
		<path opacity="0.2195" fill="#AFAFAF" d="M31.979,8.16C18.26,8.16,7.138,19.284,7.138,33.007
			c0,13.718,11.122,24.841,24.841,24.841c13.718,0,24.841-11.123,24.841-24.841C56.819,19.284,45.696,8.16,31.979,8.16z"/>
		<path opacity="0.2439" fill="#AFAFAF" d="M31.783,7.921c-13.718,0-24.841,11.124-24.841,24.847
			c0,13.719,11.123,24.842,24.841,24.842c13.718,0,24.841-11.123,24.841-24.842C56.624,19.045,45.501,7.921,31.783,7.921z"/>
		<path opacity="0.2683" fill="#AFAFAF" d="M31.588,7.682c-13.719,0-24.841,11.124-24.841,24.847
			c0,13.718,11.122,24.841,24.841,24.841c13.718,0,24.841-11.123,24.841-24.841C56.429,18.805,45.306,7.682,31.588,7.682z"/>
		<path opacity="0.2927" fill="#AFAFAF" d="M31.392,7.441c-13.718,0-24.841,11.124-24.841,24.848
			c0,13.718,11.123,24.841,24.841,24.841c13.718,0,24.841-11.123,24.841-24.841C56.232,18.565,45.109,7.441,31.392,7.441z"/>
		<path opacity="0.3171" fill="#AFAFAF" d="M31.196,7.202c-13.718,0-24.841,11.124-24.841,24.848
			c0,13.718,11.123,24.841,24.841,24.841S56.037,45.768,56.037,32.05C56.037,18.326,44.914,7.202,31.196,7.202z"/>
		<path opacity="0.3415" fill="#AFAFAF" d="M31.001,6.964C17.283,6.964,6.16,18.087,6.16,31.811
			c0,13.719,11.123,24.841,24.841,24.841c13.718,0,24.841-11.122,24.841-24.841C55.842,18.087,44.719,6.964,31.001,6.964z"/>
		<path opacity="0.3659" fill="#AFAFAF" d="M30.806,6.724c-13.719,0-24.841,11.124-24.841,24.848
			c0,13.718,11.123,24.841,24.841,24.841c13.718,0,24.841-11.123,24.841-24.841C55.646,17.848,44.523,6.724,30.806,6.724z"/>
		<path opacity="0.3902" fill="#AFAFAF" d="M30.609,6.484c-13.718,0-24.841,11.124-24.841,24.847
			c0,13.719,11.123,24.842,24.841,24.842c13.719,0,24.842-11.123,24.842-24.842C55.451,17.608,44.328,6.484,30.609,6.484z"/>
		<path opacity="0.4146" fill="#AFAFAF" d="M30.414,6.245c-13.718,0-24.84,11.124-24.84,24.847c0,13.719,11.123,24.842,24.84,24.842
			c13.719,0,24.842-11.123,24.842-24.842C55.256,17.369,44.133,6.245,30.414,6.245z"/>
		<path opacity="0.439" fill="#AFAFAF" d="M30.22,6.006c-13.719,0-24.841,11.124-24.841,24.848
			c0,13.718,11.123,24.841,24.841,24.841c13.718,0,24.841-11.123,24.841-24.841C55.061,17.129,43.938,6.006,30.22,6.006z"/>
		<path opacity="0.4634" fill="#AFAFAF" d="M30.023,5.767c-13.719,0-24.841,11.124-24.841,24.847
			c0,13.719,11.122,24.842,24.841,24.842c13.718,0,24.841-11.123,24.841-24.842C54.864,16.89,43.741,5.767,30.023,5.767z"/>
		<path opacity="0.4878" fill="#AFAFAF" d="M29.828,5.527c-13.719,0-24.841,11.123-24.841,24.847
			c0,13.718,11.123,24.841,24.841,24.841c13.718,0,24.841-11.123,24.841-24.841C54.669,16.65,43.546,5.527,29.828,5.527z"/>
		<path opacity="0.5122" fill="#AFAFAF" d="M29.633,5.288c-13.719,0-24.841,11.123-24.841,24.847
			c0,13.718,11.123,24.841,24.841,24.841c13.718,0,24.841-11.123,24.841-24.841C54.474,16.411,43.351,5.288,29.633,5.288z"/>
		<path opacity="0.5366" fill="#AFAFAF" d="M29.438,5.049c-13.719,0-24.842,11.123-24.842,24.847
			c0,13.718,11.123,24.841,24.842,24.841c13.717,0,24.841-11.123,24.841-24.841C54.278,16.172,43.154,5.049,29.438,5.049z"/>
		<path opacity="0.561" fill="#AFAFAF" d="M29.241,4.81C15.523,4.81,4.4,15.933,4.4,29.656c0,13.718,11.123,24.841,24.841,24.841
			s24.841-11.123,24.841-24.841C54.082,15.933,42.959,4.81,29.241,4.81z"/>
		<path opacity="0.5854" fill="#AFAFAF" d="M29.046,4.57c-13.718,0-24.841,11.124-24.841,24.847
			c0,13.718,11.123,24.841,24.841,24.841c13.718,0,24.841-11.123,24.841-24.841C53.887,15.693,42.764,4.57,29.046,4.57z"/>
		<path opacity="0.6098" fill="#AFAFAF" d="M28.851,4.331c-13.719,0-24.842,11.123-24.842,24.847
			c0,13.718,11.123,24.841,24.842,24.841c13.718,0,24.841-11.123,24.841-24.841C53.691,15.454,42.568,4.331,28.851,4.331z"/>
		<path opacity="0.6341" fill="#AFAFAF" d="M28.655,4.091c-13.718,0-24.841,11.124-24.841,24.847
			c0,13.718,11.123,24.841,24.841,24.841s24.841-11.123,24.841-24.841C53.496,15.215,42.373,4.091,28.655,4.091z"/>
		<path opacity="0.6585" fill="#AFAFAF" d="M28.459,3.852c-13.718,0-24.841,11.124-24.841,24.847
			c0,13.718,11.123,24.841,24.841,24.841c13.719,0,24.842-11.123,24.842-24.841C53.301,14.976,42.178,3.852,28.459,3.852z"/>
		<path opacity="0.6829" fill="#AFAFAF" d="M28.264,3.612c-13.718,0-24.841,11.124-24.841,24.848
			c0,13.718,11.123,24.841,24.841,24.841c13.717,0,24.84-11.123,24.84-24.841C53.104,14.736,41.981,3.612,28.264,3.612z"/>
		<path opacity="0.7073" fill="#AFAFAF" d="M28.068,3.374C14.35,3.374,3.228,14.497,3.228,28.22
			c0,13.719,11.123,24.842,24.841,24.842c13.719,0,24.842-11.123,24.842-24.842C52.91,14.497,41.787,3.374,28.068,3.374z"/>
		<path opacity="0.7317" fill="#AFAFAF" d="M27.873,3.134c-13.719,0-24.842,11.123-24.842,24.847
			c0,13.718,11.123,24.841,24.842,24.841c13.718,0,24.841-11.123,24.841-24.841C52.714,14.257,41.591,3.134,27.873,3.134z"/>
		<path opacity="0.7561" fill="#AFAFAF" d="M27.677,2.895c-13.718,0-24.841,11.123-24.841,24.847
			c0,13.718,11.123,24.841,24.841,24.841S52.519,41.46,52.519,27.742C52.519,14.018,41.396,2.895,27.677,2.895z"/>
		<path opacity="0.7805" fill="#AFAFAF" d="M27.482,2.655c-13.718,0-24.841,11.123-24.841,24.847
			c0,13.719,11.123,24.842,24.841,24.842c13.717,0,24.841-11.123,24.841-24.842C52.323,13.778,41.199,2.655,27.482,2.655z"/>
		<path opacity="0.8049" fill="#AFAFAF" d="M27.286,2.416c-13.718,0-24.841,11.123-24.841,24.847
			c0,13.719,11.123,24.841,24.841,24.841c13.719,0,24.841-11.122,24.841-24.841C52.127,13.539,41.005,2.416,27.286,2.416z"/>
		<path opacity="0.8293" fill="#AFAFAF" d="M27.091,2.177C13.373,2.177,2.25,13.299,2.25,27.024
			c0,13.718,11.123,24.841,24.841,24.841c13.718,0,24.841-11.123,24.841-24.841C51.932,13.299,40.809,2.177,27.091,2.177z"/>
		<path opacity="0.8537" fill="#AFAFAF" d="M26.895,1.938c-13.718,0-24.841,11.123-24.841,24.847
			c0,13.719,11.123,24.841,24.841,24.841s24.841-11.122,24.841-24.841C51.736,13.06,40.613,1.938,26.895,1.938z"/>
		<path opacity="0.878" fill="#AFAFAF" d="M26.7,1.698c-13.718,0-24.841,11.124-24.841,24.847c0,13.719,11.123,24.842,24.841,24.842
			s24.841-11.123,24.841-24.842C51.541,12.821,40.418,1.698,26.7,1.698z"/>
		<path opacity="0.9024" fill="#AFAFAF" d="M26.504,1.459c-13.718,0-24.842,11.123-24.842,24.846
			c0,13.718,11.124,24.841,24.842,24.841s24.841-11.123,24.841-24.841C51.346,12.582,40.223,1.459,26.504,1.459z"/>
		<path opacity="0.9268" fill="#AFAFAF" d="M26.309,1.219c-13.718,0-24.841,11.123-24.841,24.847
			c0,13.718,11.123,24.841,24.841,24.841c13.718,0,24.842-11.123,24.842-24.841C51.15,12.342,40.026,1.219,26.309,1.219z"/>
		<path opacity="0.9512" fill="#AFAFAF" d="M26.113,0.98c-13.718,0-24.841,11.123-24.841,24.847
			c0,13.718,11.123,24.841,24.841,24.841c13.718,0,24.842-11.123,24.842-24.841C50.955,12.103,39.831,0.98,26.113,0.98z"/>
		<path opacity="0.9756" fill="#AFAFAF" d="M25.918,0.741c-13.719,0-24.841,11.123-24.841,24.847
			c0,13.718,11.123,24.841,24.841,24.841c13.718,0,24.841-11.123,24.841-24.841C50.759,11.863,39.636,0.741,25.918,0.741z"/>
		<path fill="#AFAFAF" d="M25.722,0.501c-13.718,0-24.841,11.123-24.841,24.847c0,13.718,11.123,24.841,24.841,24.841
			s24.841-11.123,24.841-24.841C50.563,11.624,39.44,0.501,25.722,0.501z"/>
	</g>
	<g>
		
			<linearGradient id="SVGID_1_" gradientUnits="userSpaceOnUse" x1="-594.9829" y1="-292.5264" x2="-562.3862" y2="-255.0282" gradientTransform="matrix(-1 0 0 -1 -552.9629 -248.4316)">
			<stop  offset="0" style="stop-color:#5D3FD2"/>
			<stop  offset="0.4244" style="stop-color:#B829A9"/>
			<stop  offset="0.5009" style="stop-color:#BE289D"/>
			<stop  offset="0.6383" style="stop-color:#D0257E"/>
			<stop  offset="0.7849" style="stop-color:#E62256"/>
			<stop  offset="0.8147" style="stop-color:#E83156"/>
			<stop  offset="0.8718" style="stop-color:#EE5755"/>
			<stop  offset="0.9495" style="stop-color:#F89554"/>
			<stop  offset="1" style="stop-color:#FFC153"/>
		</linearGradient>
		<path fill="url(#SVGID_1_)" d="M25.722,0.501c-13.718,0-24.841,11.123-24.841,24.847c0,13.718,11.123,24.841,24.841,24.841
			s24.841-11.123,24.841-24.841C50.563,11.624,39.44,0.501,25.722,0.501z"/>
		<g>
			<path fill="none" stroke="#FFFFFF" stroke-miterlimit="10" d="M18.612,37.396L18.612,37.396L18.612,37.396L18.612,37.396z
				 M32.832,12.216L32.832,12.216L32.832,12.216L32.832,12.216z"/>
			<g>
				<path fill="#FFFFFF" d="M25.722,34.215c4.892,0,8.871-3.977,8.871-8.867c0-4.893-3.979-8.874-8.871-8.874
					s-8.871,3.981-8.871,8.874C16.851,30.238,20.83,34.215,25.722,34.215z M19.003,25.348c0-3.709,3.014-6.725,6.719-6.725
					c3.705,0,6.719,3.016,6.719,6.725c0,3.705-3.015,6.719-6.719,6.719C22.017,32.067,19.003,29.053,19.003,25.348z"/>
			</g>
			<path fill="#FFFFFF" d="M34.57,40.081H16.875c-3.321,0-6.023-2.702-6.023-6.023V16.633c0-3.321,2.702-6.023,6.023-6.023H34.57
				c3.319,0,6.021,2.702,6.021,6.023v17.424C40.592,37.379,37.89,40.081,34.57,40.081z M16.875,12.807
				c-2.11,0-3.826,1.716-3.826,3.826v17.424c0,2.109,1.716,3.825,3.826,3.825H34.57c2.108,0,3.824-1.716,3.824-3.825V16.633
				c0-2.11-1.716-3.826-3.824-3.826H16.875z"/>
		</g>
		<path fill="#FFFFFF" d="M34.713,15.463c-0.775,0-1.4,0.631-1.4,1.402c0,0.775,0.625,1.398,1.4,1.398
			c0.771,0,1.403-0.623,1.403-1.398C36.116,16.094,35.483,15.463,34.713,15.463z"/>
	</g>
</g>
</svg>
