<?xml version="1.0" encoding="utf-8"?>
<!-- Generator: Adobe Illustrator 16.0.0, SVG Export Plug-In . SVG Version: 6.00 Build 0)  -->
<!DOCTYPE svg PUBLIC "-//W3C//DTD SVG 1.1//EN" "http://www.w3.org/Graphics/SVG/1.1/DTD/svg11.dtd">
<svg version="1.1" id="Calque_1" xmlns="http://www.w3.org/2000/svg" xmlns:xlink="http://www.w3.org/1999/xlink" x="0px" y="0px"
	 width="60px" height="60px" viewBox="0 0 60 60" enable-background="new 0 0 60 60" xml:space="preserve">
<g>
	<g>
		<path id="XMLID_2_" opacity="0" fill="#AFAFAF" d="M496.794,489.703c0-39.661-32.149-71.81-71.806-71.81
			c-39.666,0-71.814,32.148-71.814,71.81c0,39.655,32.148,71.81,71.814,71.81C464.645,561.513,496.794,529.358,496.794,489.703z"/>
		<path opacity="0.0244" fill="#AFAFAF" d="M496.228,489.01c0-39.66-32.149-71.81-71.806-71.81
			c-39.666,0-71.814,32.149-71.814,71.81c0,39.656,32.148,71.81,71.814,71.81C464.078,560.819,496.228,528.666,496.228,489.01z"/>
		<path opacity="0.0488" fill="#AFAFAF" d="M495.662,488.318c0-39.662-32.149-71.811-71.806-71.811
			c-39.666,0-71.814,32.148-71.814,71.811c0,39.655,32.148,71.81,71.814,71.81C463.513,560.128,495.662,527.974,495.662,488.318z"/>
		<path opacity="0.0732" fill="#AFAFAF" d="M495.097,487.625c0-39.661-32.149-71.81-71.806-71.81
			c-39.666,0-71.814,32.148-71.814,71.81c0,39.655,32.148,71.81,71.814,71.81C462.947,559.435,495.097,527.28,495.097,487.625z"/>
		<path opacity="0.0976" fill="#AFAFAF" d="M494.53,486.933c0-39.662-32.149-71.81-71.806-71.81
			c-39.666,0-71.814,32.147-71.814,71.81c0,39.654,32.148,71.81,71.814,71.81C462.381,558.742,494.53,526.587,494.53,486.933z"/>
		<path opacity="0.122" fill="#AFAFAF" d="M493.965,486.239c0-39.661-32.149-71.81-71.806-71.81
			c-39.666,0-71.814,32.148-71.814,71.81c0,39.655,32.148,71.81,71.814,71.81C461.815,558.049,493.965,525.895,493.965,486.239z"/>
		<path opacity="0.1463" fill="#AFAFAF" d="M493.398,485.547c0-39.661-32.148-71.81-71.805-71.81
			c-39.667,0-71.815,32.148-71.815,71.81c0,39.655,32.148,71.81,71.815,71.81C461.25,557.356,493.398,525.202,493.398,485.547z"/>
		<path opacity="0.1707" fill="#AFAFAF" d="M492.833,484.854c0-39.662-32.15-71.811-71.806-71.811
			c-39.666,0-71.814,32.148-71.814,71.811c0,39.655,32.148,71.81,71.814,71.81C460.683,556.664,492.833,524.51,492.833,484.854z"/>
		<path opacity="0.1951" fill="#AFAFAF" d="M492.267,484.161c0-39.661-32.149-71.81-71.806-71.81
			c-39.666,0-71.814,32.148-71.814,71.81c0,39.655,32.148,71.81,71.814,71.81C460.117,555.971,492.267,523.816,492.267,484.161z"/>
		<path opacity="0.2195" fill="#AFAFAF" d="M491.701,483.469c0-39.661-32.15-71.81-71.806-71.81
			c-39.666,0-71.814,32.148-71.814,71.81c0,39.655,32.148,71.81,71.814,71.81C459.551,555.278,491.701,523.124,491.701,483.469z"/>
		<path opacity="0.2439" fill="#AFAFAF" d="M491.135,482.776c0-39.661-32.149-71.81-71.805-71.81
			c-39.666,0-71.815,32.148-71.815,71.81c0,39.655,32.149,71.81,71.815,71.81C458.985,554.586,491.135,522.432,491.135,482.776z"/>
		<path opacity="0.2683" fill="#AFAFAF" d="M490.569,482.084c0-39.662-32.149-71.811-71.806-71.811
			c-39.666,0-71.814,32.148-71.814,71.811c0,39.654,32.148,71.809,71.814,71.809C458.42,553.893,490.569,521.738,490.569,482.084z"
			/>
		<path opacity="0.2927" fill="#AFAFAF" d="M490.003,481.391c0-39.662-32.149-71.81-71.806-71.81
			c-39.666,0-71.814,32.147-71.814,71.81c0,39.655,32.148,71.809,71.814,71.809C457.854,553.199,490.003,521.046,490.003,481.391z"
			/>
		<path opacity="0.3171" fill="#AFAFAF" d="M489.438,480.697c0-39.661-32.15-71.809-71.806-71.809
			c-39.666,0-71.814,32.147-71.814,71.809c0,39.656,32.148,71.81,71.814,71.81C457.287,552.507,489.438,520.354,489.438,480.697z"/>
		<path opacity="0.3415" fill="#AFAFAF" d="M488.872,480.005c0-39.661-32.15-71.81-71.806-71.81
			c-39.666,0-71.814,32.148-71.814,71.81c0,39.655,32.148,71.811,71.814,71.811C456.722,551.815,488.872,519.66,488.872,480.005z"/>
		<path opacity="0.3659" fill="#AFAFAF" d="M488.306,479.313c0-39.662-32.149-71.81-71.806-71.81
			c-39.666,0-71.814,32.147-71.814,71.81c0,39.655,32.148,71.81,71.814,71.81C456.156,551.122,488.306,518.968,488.306,479.313z"/>
		<path opacity="0.3902" fill="#AFAFAF" d="M487.74,478.619c0-39.661-32.15-71.809-71.807-71.809
			c-39.666,0-71.814,32.147-71.814,71.809c0,39.656,32.148,71.81,71.814,71.81C455.59,550.429,487.74,518.275,487.74,478.619z"/>
		<path opacity="0.4146" fill="#AFAFAF" d="M487.174,477.927c0-39.661-32.15-71.81-71.806-71.81
			c-39.666,0-71.814,32.148-71.814,71.81c0,39.655,32.148,71.81,71.814,71.81C455.023,549.736,487.174,517.582,487.174,477.927z"/>
		<path opacity="0.439" fill="#AFAFAF" d="M486.608,477.234c0-39.661-32.149-71.81-71.806-71.81
			c-39.666,0-71.814,32.148-71.814,71.81c0,39.655,32.148,71.81,71.814,71.81C454.459,549.044,486.608,516.89,486.608,477.234z"/>
		<path opacity="0.4634" fill="#AFAFAF" d="M486.042,476.542c0-39.662-32.149-71.811-71.806-71.811
			c-39.666,0-71.814,32.148-71.814,71.811c0,39.655,32.148,71.81,71.814,71.81C453.893,548.352,486.042,516.197,486.042,476.542z"/>
		<path opacity="0.4878" fill="#AFAFAF" d="M485.477,475.849c0-39.662-32.15-71.81-71.807-71.81
			c-39.666,0-71.814,32.147-71.814,71.81c0,39.655,32.148,71.81,71.814,71.81C453.326,547.658,485.477,515.504,485.477,475.849z"/>
		<path opacity="0.5122" fill="#AFAFAF" d="M484.91,475.156c0-39.662-32.15-71.81-71.805-71.81
			c-39.667,0-71.815,32.147-71.815,71.81c0,39.655,32.148,71.81,71.815,71.81C452.76,546.966,484.91,514.812,484.91,475.156z"/>
		<path opacity="0.5366" fill="#AFAFAF" d="M484.344,474.463c0-39.661-32.149-71.809-71.805-71.809
			c-39.666,0-71.814,32.147-71.814,71.809c0,39.656,32.148,71.811,71.814,71.811C452.194,546.273,484.344,514.119,484.344,474.463z"
			/>
		<path opacity="0.561" fill="#AFAFAF" d="M483.778,473.771c0-39.661-32.149-71.81-71.806-71.81
			c-39.666,0-71.814,32.148-71.814,71.81c0,39.655,32.148,71.81,71.814,71.81C451.629,545.58,483.778,513.426,483.778,473.771z"/>
		<path opacity="0.5854" fill="#AFAFAF" d="M483.213,473.078c0-39.662-32.15-71.81-71.806-71.81
			c-39.666,0-71.814,32.147-71.814,71.81c0,39.654,32.148,71.81,71.814,71.81C451.063,544.888,483.213,512.732,483.213,473.078z"/>
		<path opacity="0.6098" fill="#AFAFAF" d="M482.646,472.386c0-39.662-32.149-71.81-71.805-71.81
			c-39.666,0-71.815,32.147-71.815,71.81c0,39.654,32.149,71.81,71.815,71.81C450.497,544.195,482.646,512.04,482.646,472.386z"/>
		<path opacity="0.6341" fill="#AFAFAF" d="M482.081,471.692c0-39.661-32.149-71.81-71.806-71.81
			c-39.666,0-71.814,32.148-71.814,71.81c0,39.655,32.148,71.81,71.814,71.81C449.932,543.502,482.081,511.348,482.081,471.692z"/>
		<path opacity="0.6585" fill="#AFAFAF" d="M481.515,471c0-39.662-32.149-71.81-71.806-71.81c-39.666,0-71.814,32.147-71.814,71.81
			c0,39.655,32.148,71.81,71.814,71.81C449.365,542.81,481.515,510.655,481.515,471z"/>
		<path opacity="0.6829" fill="#AFAFAF" d="M480.949,470.307c0-39.661-32.15-71.81-71.806-71.81
			c-39.666,0-71.814,32.148-71.814,71.81c0,39.656,32.148,71.811,71.814,71.811C448.799,542.117,480.949,509.963,480.949,470.307z"
			/>
		<path opacity="0.7073" fill="#AFAFAF" d="M480.383,469.614c0-39.661-32.149-71.81-71.805-71.81
			c-39.666,0-71.814,32.148-71.814,71.81c0,39.655,32.148,71.81,71.814,71.81C448.233,541.424,480.383,509.27,480.383,469.614z"/>
		<path opacity="0.7317" fill="#AFAFAF" d="M479.817,468.922c0-39.662-32.149-71.811-71.806-71.811
			c-39.666,0-71.814,32.148-71.814,71.811c0,39.655,32.148,71.81,71.814,71.81C447.668,540.731,479.817,508.577,479.817,468.922z"/>
		<path opacity="0.7561" fill="#AFAFAF" d="M479.252,468.229c0-39.662-32.15-71.81-71.806-71.81
			c-39.666,0-71.815,32.147-71.815,71.81c0,39.655,32.149,71.811,71.815,71.811C447.102,540.039,479.252,507.884,479.252,468.229z"
			/>
		<path opacity="0.7805" fill="#AFAFAF" d="M478.686,467.536c0-39.662-32.15-71.81-71.806-71.81
			c-39.666,0-71.814,32.147-71.814,71.81c0,39.655,32.148,71.81,71.814,71.81C446.535,539.346,478.686,507.191,478.686,467.536z"/>
		<path opacity="0.8049" fill="#AFAFAF" d="M478.12,466.844c0-39.662-32.15-71.81-71.806-71.81
			c-39.666,0-71.814,32.147-71.814,71.81c0,39.655,32.148,71.81,71.814,71.81C445.97,538.653,478.12,506.499,478.12,466.844z"/>
		<path opacity="0.8293" fill="#AFAFAF" d="M477.554,466.15c0-39.661-32.149-71.809-71.806-71.809
			c-39.666,0-71.814,32.147-71.814,71.809c0,39.655,32.148,71.81,71.814,71.81C445.404,537.96,477.554,505.806,477.554,466.15z"/>
		<path opacity="0.8537" fill="#AFAFAF" d="M476.988,465.458c0-39.662-32.15-71.81-71.806-71.81
			c-39.666,0-71.814,32.147-71.814,71.81c0,39.655,32.148,71.81,71.814,71.81C444.838,537.268,476.988,505.113,476.988,465.458z"/>
		<path opacity="0.878" fill="#AFAFAF" d="M476.422,464.766c0-39.662-32.15-71.81-71.806-71.81
			c-39.666,0-71.814,32.147-71.814,71.81c0,39.655,32.148,71.81,71.814,71.81C444.271,536.575,476.422,504.421,476.422,464.766z"/>
		<path opacity="0.9024" fill="#AFAFAF" d="M475.856,464.072c0-39.661-32.15-71.809-71.806-71.809
			c-39.666,0-71.814,32.147-71.814,71.809c0,39.656,32.148,71.81,71.814,71.81C443.706,535.882,475.856,503.729,475.856,464.072z"/>
		<path opacity="0.9268" fill="#AFAFAF" d="M475.29,463.38c0-39.662-32.149-71.81-71.806-71.81
			c-39.666,0-71.814,32.147-71.814,71.81c0,39.655,32.148,71.81,71.814,71.81C443.141,535.189,475.29,503.035,475.29,463.38z"/>
		<path opacity="0.9512" fill="#AFAFAF" d="M474.725,462.688c0-39.662-32.15-71.81-71.806-71.81
			c-39.666,0-71.814,32.147-71.814,71.81c0,39.655,32.148,71.81,71.814,71.81C442.574,534.497,474.725,502.343,474.725,462.688z"/>
		<path opacity="0.9756" fill="#AFAFAF" d="M474.158,461.994c0-39.661-32.15-71.81-71.806-71.81
			c-39.666,0-71.814,32.148-71.814,71.81c0,39.656,32.148,71.81,71.814,71.81C442.008,533.804,474.158,501.65,474.158,461.994z"/>
		<path id="XMLID_1_" fill="#AFAFAF" d="M473.593,461.302c0-39.662-32.15-71.81-71.806-71.81c-39.666,0-71.814,32.147-71.814,71.81
			c0,39.655,32.148,71.81,71.814,71.81C441.442,533.111,473.593,500.957,473.593,461.302z"/>
	</g>
	<g>
		<path id="XMLID_108_" fill="#3D83D9" d="M473.593,461.302c0-39.662-32.15-71.81-71.806-71.81
			c-39.666,0-71.814,32.147-71.814,71.81c0,39.655,32.148,71.81,71.814,71.81C441.442,533.111,473.593,500.957,473.593,461.302z"/>
		<g>
			<rect x="367.592" y="443.776" fill="#FFFFFF" width="16.623" height="47.507"/>
			<path fill="#FFFFFF" d="M375.904,420.023c-5.207,0-9.283,4.785-8.109,10.174c0.683,3.132,3.236,5.648,6.378,6.279
				c5.357,1.076,10.042-2.979,10.042-8.143C384.215,423.752,380.5,420.023,375.904,420.023z"/>
			<path fill="#FFFFFF" d="M438.849,458.37c-1.118-8.954-5.597-14.594-17.702-14.594c-8.591,0-12.006,1.341-13.977,5.09l0,0v-5.09
				h-13.457v47.507h13.849v-24.868c0-6.208,1.177-10.897,8.852-10.897c7.566,0,8.174,5.771,8.174,11.3v24.466h14.262
				C438.849,491.283,439.112,460.463,438.849,458.37z"/>
		</g>
	</g>
</g>
<g>
	<g>
		<path id="XMLID_8_" opacity="0" fill="#AFAFAF" d="M58.477,34.316c0-13.358-10.828-24.186-24.184-24.186
			c-13.361,0-24.188,10.828-24.188,24.186c0,13.356,10.828,24.186,24.188,24.186C47.648,58.502,58.477,47.673,58.477,34.316z"/>
		<path opacity="0.0244" fill="#AFAFAF" d="M58.286,34.083c0-13.358-10.829-24.186-24.184-24.186
			c-13.361,0-24.189,10.828-24.189,24.186c0,13.356,10.828,24.186,24.189,24.186C47.457,58.269,58.286,47.439,58.286,34.083z"/>
		<path opacity="0.0488" fill="#AFAFAF" d="M58.096,33.85c0-13.358-10.828-24.186-24.184-24.186
			c-13.361,0-24.188,10.828-24.188,24.186c0,13.356,10.827,24.186,24.188,24.186C47.268,58.035,58.096,47.206,58.096,33.85z"/>
		<path opacity="0.0732" fill="#AFAFAF" d="M57.905,33.616c0-13.358-10.829-24.186-24.184-24.186
			c-13.361,0-24.188,10.828-24.188,24.186c0,13.356,10.827,24.187,24.188,24.187C47.076,57.803,57.905,46.973,57.905,33.616z"/>
		<path opacity="0.0976" fill="#AFAFAF" d="M57.714,33.383c0-13.358-10.828-24.186-24.184-24.186
			c-13.361,0-24.188,10.828-24.188,24.186c0,13.356,10.828,24.186,24.188,24.186C46.886,57.568,57.714,46.739,57.714,33.383z"/>
		<path opacity="0.122" fill="#AFAFAF" d="M57.523,33.149c0-13.358-10.828-24.186-24.184-24.186
			c-13.361,0-24.188,10.828-24.188,24.186c0,13.356,10.828,24.187,24.188,24.187C46.695,57.336,57.523,46.506,57.523,33.149z"/>
		<path opacity="0.1463" fill="#AFAFAF" d="M57.333,32.917c0-13.359-10.828-24.187-24.184-24.187
			c-13.36,0-24.188,10.828-24.188,24.187c0,13.356,10.828,24.186,24.188,24.186C46.505,57.103,57.333,46.273,57.333,32.917z"/>
		<path opacity="0.1707" fill="#AFAFAF" d="M57.143,32.684c0-13.359-10.828-24.187-24.184-24.187
			c-13.361,0-24.188,10.828-24.188,24.187c0,13.356,10.827,24.186,24.188,24.186C46.314,56.869,57.143,46.04,57.143,32.684z"/>
		<path opacity="0.1951" fill="#AFAFAF" d="M56.951,32.45c0-13.359-10.828-24.187-24.184-24.187
			C19.407,8.264,8.58,19.091,8.58,32.45c0,13.355,10.828,24.186,24.188,24.186C46.123,56.636,56.951,45.806,56.951,32.45z"/>
		<path opacity="0.2195" fill="#AFAFAF" d="M56.761,32.217c0-13.359-10.828-24.187-24.184-24.187
			C19.217,8.03,8.39,18.858,8.39,32.217c0,13.355,10.827,24.186,24.188,24.186C45.933,56.402,56.761,45.572,56.761,32.217z"/>
		<path opacity="0.2439" fill="#AFAFAF" d="M56.57,31.983c0-13.358-10.827-24.186-24.184-24.186
			c-13.36,0-24.188,10.827-24.188,24.186c0,13.356,10.827,24.186,24.188,24.186C45.743,56.169,56.57,45.34,56.57,31.983z"/>
		<path opacity="0.2683" fill="#AFAFAF" d="M56.38,31.75c0-13.358-10.828-24.187-24.184-24.187
			c-13.361,0-24.188,10.828-24.188,24.187c0,13.356,10.828,24.186,24.188,24.186C45.552,55.936,56.38,45.106,56.38,31.75z"/>
		<path opacity="0.2927" fill="#AFAFAF" d="M56.189,31.517c0-13.359-10.828-24.186-24.184-24.186
			c-13.361,0-24.188,10.827-24.188,24.186c0,13.356,10.827,24.186,24.188,24.186C45.361,55.702,56.189,44.873,56.189,31.517z"/>
		<path opacity="0.3171" fill="#AFAFAF" d="M55.999,31.283c0-13.358-10.829-24.186-24.184-24.186
			c-13.361,0-24.188,10.828-24.188,24.186c0,13.356,10.827,24.186,24.188,24.186C45.17,55.469,55.999,44.64,55.999,31.283z"/>
		<path opacity="0.3415" fill="#AFAFAF" d="M55.809,31.05c0-13.358-10.828-24.186-24.184-24.186
			c-13.361,0-24.188,10.828-24.188,24.186c0,13.356,10.827,24.187,24.188,24.187C44.98,55.236,55.809,44.406,55.809,31.05z"/>
		<path opacity="0.3659" fill="#AFAFAF" d="M55.617,30.816c0-13.358-10.828-24.186-24.184-24.186
			c-13.36,0-24.188,10.828-24.188,24.186c0,13.356,10.827,24.186,24.188,24.186C44.789,55.002,55.617,44.173,55.617,30.816z"/>
		<path opacity="0.3902" fill="#AFAFAF" d="M55.427,30.583c0-13.358-10.828-24.186-24.184-24.186
			c-13.361,0-24.188,10.828-24.188,24.186c0,13.356,10.828,24.186,24.188,24.186C44.599,54.769,55.427,43.939,55.427,30.583z"/>
		<path opacity="0.4146" fill="#AFAFAF" d="M55.236,30.35c0-13.358-10.828-24.186-24.184-24.186
			c-13.361,0-24.188,10.828-24.188,24.186c0,13.357,10.827,24.187,24.188,24.187C44.408,54.536,55.236,43.707,55.236,30.35z"/>
		<path opacity="0.439" fill="#AFAFAF" d="M55.046,30.117c0-13.358-10.828-24.187-24.184-24.187
			c-13.36,0-24.188,10.828-24.188,24.187c0,13.356,10.828,24.186,24.188,24.186C44.218,54.303,55.046,43.474,55.046,30.117z"/>
		<path opacity="0.4634" fill="#AFAFAF" d="M54.855,29.883c0-13.358-10.828-24.186-24.184-24.186
			c-13.361,0-24.188,10.828-24.188,24.186c0,13.356,10.827,24.186,24.188,24.186C44.027,54.068,54.855,43.239,54.855,29.883z"/>
		<path opacity="0.4878" fill="#AFAFAF" d="M54.664,29.65c0-13.359-10.828-24.187-24.184-24.187
			c-13.36,0-24.188,10.828-24.188,24.187c0,13.355,10.828,24.186,24.188,24.186C43.836,53.836,54.664,43.006,54.664,29.65z"/>
		<path opacity="0.5122" fill="#AFAFAF" d="M54.475,29.416c0-13.357-10.828-24.185-24.184-24.185
			c-13.361,0-24.189,10.828-24.189,24.185c0,13.356,10.828,24.187,24.189,24.187C43.646,53.603,54.475,42.772,54.475,29.416z"/>
		<path opacity="0.5366" fill="#AFAFAF" d="M54.283,29.184c0-13.358-10.828-24.187-24.184-24.187
			c-13.361,0-24.188,10.828-24.188,24.187c0,13.355,10.827,24.186,24.188,24.186C43.455,53.369,54.283,42.539,54.283,29.184z"/>
		<path opacity="0.561" fill="#AFAFAF" d="M54.093,28.95c0-13.358-10.828-24.186-24.184-24.186
			c-13.361,0-24.188,10.828-24.188,24.186c0,13.356,10.828,24.187,24.188,24.187C43.265,53.137,54.093,42.307,54.093,28.95z"/>
		<path opacity="0.5854" fill="#AFAFAF" d="M53.902,28.717c0-13.358-10.828-24.186-24.184-24.186
			C16.358,4.531,5.53,15.358,5.53,28.717c0,13.356,10.828,24.186,24.188,24.186C43.074,52.902,53.902,42.073,53.902,28.717z"/>
		<path opacity="0.6098" fill="#AFAFAF" d="M53.711,28.483c0-13.358-10.828-24.186-24.184-24.186
			c-13.36,0-24.188,10.828-24.188,24.186c0,13.356,10.827,24.186,24.188,24.186C42.883,52.669,53.711,41.84,53.711,28.483z"/>
		<path opacity="0.6341" fill="#AFAFAF" d="M53.521,28.25c0-13.358-10.829-24.186-24.184-24.186
			c-13.361,0-24.188,10.827-24.188,24.186c0,13.356,10.827,24.186,24.188,24.186C42.692,52.436,53.521,41.606,53.521,28.25z"/>
		<path opacity="0.6585" fill="#AFAFAF" d="M53.33,28.017c0-13.358-10.828-24.187-24.184-24.187
			c-13.36,0-24.188,10.828-24.188,24.187c0,13.356,10.828,24.186,24.188,24.186C42.502,52.203,53.33,41.373,53.33,28.017z"/>
		<path opacity="0.6829" fill="#AFAFAF" d="M53.14,27.783c0-13.358-10.828-24.186-24.184-24.186
			c-13.361,0-24.188,10.828-24.188,24.186c0,13.356,10.827,24.187,24.188,24.187C42.312,51.97,53.14,41.14,53.14,27.783z"/>
		<path opacity="0.7073" fill="#AFAFAF" d="M52.949,27.55c0-13.358-10.828-24.186-24.184-24.186
			c-13.361,0-24.188,10.827-24.188,24.186c0,13.356,10.827,24.187,24.188,24.187C42.121,51.736,52.949,40.906,52.949,27.55z"/>
		<path opacity="0.7317" fill="#AFAFAF" d="M52.759,27.317c0-13.358-10.828-24.186-24.184-24.186
			c-13.361,0-24.188,10.828-24.188,24.186c0,13.356,10.828,24.186,24.188,24.186C41.931,51.503,52.759,40.673,52.759,27.317z"/>
		<path opacity="0.7561" fill="#AFAFAF" d="M52.568,27.084c0-13.359-10.828-24.187-24.184-24.187
			c-13.361,0-24.188,10.828-24.188,24.187c0,13.355,10.827,24.186,24.188,24.186C41.74,51.27,52.568,40.439,52.568,27.084z"/>
		<path opacity="0.7805" fill="#AFAFAF" d="M52.378,26.85c0-13.358-10.829-24.186-24.185-24.186
			c-13.36,0-24.188,10.828-24.188,24.186c0,13.356,10.827,24.186,24.188,24.186C41.549,51.036,52.378,40.206,52.378,26.85z"/>
		<circle opacity="0.8049" fill="#AFAFAF" cx="28.001" cy="26.617" r="24.186"/>
		<path opacity="0.8293" fill="#AFAFAF" d="M51.996,26.384c0-13.358-10.828-24.186-24.184-24.186
			c-13.361,0-24.188,10.828-24.188,24.186c0,13.356,10.827,24.186,24.188,24.186C41.168,50.569,51.996,39.74,51.996,26.384z"/>
		<path opacity="0.8537" fill="#AFAFAF" d="M51.806,26.15c0-13.358-10.828-24.186-24.184-24.186
			c-13.36,0-24.188,10.828-24.188,24.186c0,13.356,10.827,24.186,24.188,24.186C40.978,50.336,51.806,39.507,51.806,26.15z"/>
		<path opacity="0.878" fill="#AFAFAF" d="M51.615,25.917c0-13.358-10.828-24.186-24.184-24.186
			c-13.36,0-24.188,10.828-24.188,24.186c0,13.356,10.827,24.187,24.188,24.187C40.787,50.104,51.615,39.273,51.615,25.917z"/>
		<path opacity="0.9024" fill="#AFAFAF" d="M51.425,25.684c0-13.358-10.829-24.186-24.185-24.186
			c-13.36,0-24.187,10.827-24.187,24.186c0,13.355,10.827,24.187,24.187,24.187C40.596,49.87,51.425,39.039,51.425,25.684z"/>
		<path opacity="0.9268" fill="#AFAFAF" d="M51.234,25.451c0-13.358-10.829-24.187-24.185-24.187
			c-13.36,0-24.188,10.828-24.188,24.187c0,13.356,10.827,24.186,24.188,24.186C40.405,49.637,51.234,38.807,51.234,25.451z"/>
		<path opacity="0.9512" fill="#AFAFAF" d="M51.043,25.217c0-13.358-10.828-24.186-24.184-24.186
			c-13.36,0-24.188,10.828-24.188,24.186c0,13.356,10.828,24.186,24.188,24.186C40.215,49.403,51.043,38.573,51.043,25.217z"/>
		<path opacity="0.9756" fill="#AFAFAF" d="M50.853,24.984c0-13.358-10.828-24.187-24.184-24.187
			c-13.36,0-24.188,10.828-24.188,24.187c0,13.356,10.827,24.186,24.188,24.186C40.024,49.17,50.853,38.34,50.853,24.984z"/>
		<path id="XMLID_7_" fill="#AFAFAF" d="M50.662,24.75c0-13.358-10.828-24.186-24.184-24.186c-13.36,0-24.188,10.828-24.188,24.186
			c0,13.356,10.827,24.186,24.188,24.186C39.834,48.937,50.662,38.106,50.662,24.75z"/>
	</g>
	<g>
		<path id="XMLID_3_" fill="#3D83D9" d="M50.662,24.75c0-13.358-10.828-24.186-24.184-24.186c-13.36,0-24.188,10.828-24.188,24.186
			c0,13.356,10.827,24.186,24.188,24.186C39.834,48.937,50.662,38.106,50.662,24.75z"/>
		<g>
			<rect x="14.961" y="18.848" fill="#FFFFFF" width="5.599" height="16"/>
			<path fill="#FFFFFF" d="M17.76,10.848c-1.753,0-3.126,1.612-2.731,3.427c0.23,1.055,1.09,1.903,2.148,2.115
				c1.805,0.363,3.382-1.003,3.382-2.742C20.56,12.104,19.308,10.848,17.76,10.848z"/>
			<path fill="#FFFFFF" d="M38.96,23.763c-0.376-3.016-1.885-4.915-5.962-4.915c-2.894,0-4.044,0.452-4.708,1.714l0,0v-1.714h-4.532
				v16h4.664v-8.376c0-2.091,0.397-3.67,2.982-3.67c2.548,0,2.752,1.944,2.752,3.806v8.24h4.804
				C38.96,34.849,39.049,24.468,38.96,23.763z"/>
		</g>
	</g>
</g>
</svg>
