<?xml version="1.0" encoding="utf-8"?>
<!-- Generator: Adobe Illustrator 16.0.0, SVG Export Plug-In . SVG Version: 6.00 Build 0)  -->
<!DOCTYPE svg PUBLIC "-//W3C//DTD SVG 1.1//EN" "http://www.w3.org/Graphics/SVG/1.1/DTD/svg11.dtd">
<svg version="1.1" id="Calque_1" xmlns="http://www.w3.org/2000/svg" xmlns:xlink="http://www.w3.org/1999/xlink" x="0px" y="0px"
	 width="60px" height="60px" viewBox="0 0 60 60" enable-background="new 0 0 60 60" xml:space="preserve">
<g>
	<g>
		<path id="XMLID_2_" opacity="0" fill="#AFAFAF" d="M59.035,35.127c0-13.525-10.966-24.494-24.493-24.494
			c-13.529,0-24.494,10.969-24.494,24.494c0,13.526,10.965,24.493,24.494,24.493C48.069,59.62,59.035,48.653,59.035,35.127z"/>
		<circle opacity="0.0244" fill="#AFAFAF" cx="34.348" cy="34.891" r="24.493"/>
		<path opacity="0.0488" fill="#AFAFAF" d="M58.649,34.654c0-13.525-10.966-24.494-24.493-24.494
			c-13.529,0-24.495,10.969-24.495,24.494c0,13.526,10.965,24.493,24.495,24.493C47.684,59.147,58.649,48.181,58.649,34.654z"/>
		<path opacity="0.0732" fill="#AFAFAF" d="M58.456,34.418c0-13.525-10.966-24.494-24.493-24.494
			c-13.529,0-24.494,10.969-24.494,24.494c0,13.527,10.965,24.493,24.494,24.493C47.49,58.911,58.456,47.945,58.456,34.418z"/>
		<path opacity="0.0976" fill="#AFAFAF" d="M58.264,34.182c0-13.525-10.967-24.494-24.494-24.494
			c-13.529,0-24.494,10.969-24.494,24.494c0,13.526,10.965,24.493,24.494,24.493C47.297,58.675,58.264,47.708,58.264,34.182z"/>
		<path opacity="0.122" fill="#AFAFAF" d="M58.07,33.946c0-13.526-10.966-24.495-24.493-24.495
			c-13.529,0-24.495,10.969-24.495,24.495c0,13.525,10.965,24.492,24.495,24.492C47.104,58.438,58.07,47.472,58.07,33.946z"/>
		<path opacity="0.1463" fill="#AFAFAF" d="M57.877,33.709c0-13.524-10.966-24.494-24.492-24.494
			c-13.53,0-24.495,10.969-24.495,24.494c0,13.526,10.965,24.494,24.495,24.494C46.911,58.203,57.877,47.235,57.877,33.709z"/>
		<path opacity="0.1707" fill="#AFAFAF" d="M57.685,33.473c0-13.525-10.966-24.494-24.493-24.494
			c-13.53,0-24.495,10.969-24.495,24.494c0,13.527,10.965,24.494,24.495,24.494C46.719,57.967,57.685,47,57.685,33.473z"/>
		<path opacity="0.1951" fill="#AFAFAF" d="M57.49,33.236c0-13.525-10.966-24.494-24.492-24.494
			c-13.53,0-24.495,10.969-24.495,24.494c0,13.526,10.965,24.493,24.495,24.493C46.524,57.729,57.49,46.763,57.49,33.236z"/>
		<path opacity="0.2195" fill="#AFAFAF" d="M57.298,33c0-13.524-10.966-24.494-24.493-24.494C19.275,8.506,8.311,19.476,8.311,33
			c0,13.526,10.965,24.494,24.494,24.494C46.332,57.494,57.298,46.526,57.298,33z"/>
		<circle opacity="0.2439" fill="#AFAFAF" cx="32.611" cy="32.765" r="24.494"/>
		<path opacity="0.2683" fill="#AFAFAF" d="M56.912,32.527c0-13.524-10.966-24.494-24.493-24.494
			c-13.529,0-24.495,10.969-24.495,24.494c0,13.527,10.966,24.494,24.495,24.494C45.946,57.021,56.912,46.055,56.912,32.527z"/>
		<path opacity="0.2927" fill="#AFAFAF" d="M56.719,32.291c0-13.524-10.966-24.494-24.493-24.494
			c-13.529,0-24.495,10.97-24.495,24.494c0,13.527,10.965,24.494,24.495,24.494C45.753,56.785,56.719,45.818,56.719,32.291z"/>
		<path opacity="0.3171" fill="#AFAFAF" d="M56.526,32.056c0-13.525-10.967-24.495-24.493-24.495
			c-13.53,0-24.495,10.97-24.495,24.495c0,13.526,10.965,24.493,24.495,24.493C45.56,56.549,56.526,45.582,56.526,32.056z"/>
		<path opacity="0.3415" fill="#AFAFAF" d="M56.333,31.819c0-13.525-10.966-24.494-24.493-24.494
			c-13.529,0-24.495,10.969-24.495,24.494c0,13.526,10.965,24.493,24.495,24.493C45.367,56.313,56.333,45.346,56.333,31.819z"/>
		<path opacity="0.3659" fill="#AFAFAF" d="M56.141,31.583c0-13.525-10.967-24.495-24.494-24.495
			c-13.529,0-24.494,10.97-24.494,24.495c0,13.526,10.965,24.493,24.494,24.493C45.174,56.076,56.141,45.109,56.141,31.583z"/>
		<path opacity="0.3902" fill="#AFAFAF" d="M55.947,31.346c0-13.524-10.967-24.494-24.493-24.494
			c-13.53,0-24.496,10.97-24.496,24.494c0,13.527,10.965,24.494,24.496,24.494C44.98,55.84,55.947,44.873,55.947,31.346z"/>
		<circle opacity="0.4146" fill="#AFAFAF" cx="31.26" cy="31.11" r="24.494"/>
		<path opacity="0.439" fill="#AFAFAF" d="M55.562,30.874c0-13.524-10.967-24.495-24.493-24.495
			c-13.53,0-24.496,10.97-24.496,24.495c0,13.526,10.966,24.493,24.496,24.493C44.595,55.367,55.562,44.4,55.562,30.874z"/>
		<circle opacity="0.4634" fill="#AFAFAF" cx="30.874" cy="30.638" r="24.494"/>
		<path opacity="0.4878" fill="#AFAFAF" d="M55.175,30.401c0-13.525-10.966-24.495-24.493-24.495
			c-13.529,0-24.495,10.97-24.495,24.495c0,13.526,10.966,24.493,24.495,24.493C44.209,54.895,55.175,43.928,55.175,30.401z"/>
		<path opacity="0.5122" fill="#AFAFAF" d="M54.982,30.165c0-13.524-10.967-24.495-24.493-24.495
			c-13.53,0-24.496,10.971-24.496,24.495c0,13.526,10.966,24.493,24.496,24.493C44.016,54.658,54.982,43.691,54.982,30.165z"/>
		<circle opacity="0.5366" fill="#AFAFAF" cx="30.295" cy="29.929" r="24.494"/>
		<path opacity="0.561" fill="#AFAFAF" d="M54.596,29.692c0-13.525-10.966-24.494-24.492-24.494
			c-13.53,0-24.496,10.969-24.496,24.494c0,13.526,10.966,24.493,24.496,24.493C43.63,54.186,54.596,43.219,54.596,29.692z"/>
		<path opacity="0.5854" fill="#AFAFAF" d="M54.403,29.456c0-13.524-10.967-24.495-24.493-24.495
			c-13.53,0-24.496,10.97-24.496,24.495c0,13.526,10.966,24.494,24.496,24.494C43.437,53.95,54.403,42.982,54.403,29.456z"/>
		<path opacity="0.6098" fill="#AFAFAF" d="M54.21,29.22c0-13.525-10.966-24.494-24.493-24.494
			c-13.53,0-24.496,10.969-24.496,24.494c0,13.526,10.966,24.494,24.496,24.494C43.244,53.714,54.21,42.746,54.21,29.22z"/>
		<path opacity="0.6341" fill="#AFAFAF" d="M54.018,28.983c0-13.524-10.967-24.495-24.494-24.495
			c-13.53,0-24.496,10.97-24.496,24.495c0,13.526,10.966,24.494,24.496,24.494C43.051,53.478,54.018,42.51,54.018,28.983z"/>
		<path opacity="0.6585" fill="#AFAFAF" d="M53.824,28.747c0-13.525-10.967-24.495-24.493-24.495
			c-13.53,0-24.496,10.97-24.496,24.495c0,13.526,10.966,24.494,24.496,24.494C42.857,53.241,53.824,42.273,53.824,28.747z"/>
		<path opacity="0.6829" fill="#AFAFAF" d="M53.631,28.511c0-13.524-10.966-24.494-24.493-24.494
			c-13.53,0-24.496,10.97-24.496,24.494c0,13.526,10.966,24.494,24.496,24.494C42.665,53.005,53.631,42.037,53.631,28.511z"/>
		<path opacity="0.7073" fill="#AFAFAF" d="M53.438,28.275c0-13.525-10.966-24.495-24.492-24.495
			c-13.53,0-24.496,10.97-24.496,24.495c0,13.526,10.966,24.494,24.496,24.494C42.472,52.769,53.438,41.801,53.438,28.275z"/>
		<path opacity="0.7317" fill="#AFAFAF" d="M53.245,28.039c0-13.525-10.967-24.495-24.493-24.495
			c-13.53,0-24.496,10.97-24.496,24.495c0,13.527,10.966,24.494,24.496,24.494C42.278,52.532,53.245,41.565,53.245,28.039z"/>
		<path opacity="0.7561" fill="#AFAFAF" d="M53.052,27.802c0-13.525-10.967-24.495-24.493-24.495
			c-13.53,0-24.496,10.97-24.496,24.495c0,13.526,10.966,24.494,24.496,24.494C42.085,52.296,53.052,41.328,53.052,27.802z"/>
		<path opacity="0.7805" fill="#AFAFAF" d="M52.859,27.566c0-13.525-10.967-24.495-24.493-24.495
			c-13.53,0-24.497,10.97-24.497,24.495c0,13.526,10.966,24.495,24.497,24.495C41.893,52.061,52.859,41.092,52.859,27.566z"/>
		<path opacity="0.8049" fill="#AFAFAF" d="M52.666,27.33c0-13.525-10.967-24.495-24.493-24.495
			c-13.53,0-24.496,10.97-24.496,24.495c0,13.526,10.966,24.494,24.496,24.494C41.699,51.823,52.666,40.855,52.666,27.33z"/>
		<path opacity="0.8293" fill="#AFAFAF" d="M52.473,27.094c0-13.525-10.967-24.495-24.493-24.495
			c-13.53,0-24.497,10.97-24.497,24.495c0,13.526,10.967,24.494,24.497,24.494C41.506,51.588,52.473,40.62,52.473,27.094z"/>
		<path opacity="0.8537" fill="#AFAFAF" d="M52.28,26.857c0-13.525-10.967-24.495-24.494-24.495
			c-13.53,0-24.496,10.97-24.496,24.495c0,13.526,10.966,24.494,24.496,24.494C41.313,51.352,52.28,40.384,52.28,26.857z"/>
		<path opacity="0.878" fill="#AFAFAF" d="M52.087,26.621c0-13.525-10.967-24.495-24.493-24.495
			c-13.53,0-24.496,10.97-24.496,24.495c0,13.526,10.966,24.493,24.496,24.493C41.12,51.114,52.087,40.147,52.087,26.621z"/>
		<path opacity="0.9024" fill="#AFAFAF" d="M51.895,26.384c0-13.524-10.967-24.495-24.493-24.495
			c-13.531,0-24.497,10.971-24.497,24.495c0,13.527,10.966,24.495,24.497,24.495C40.928,50.879,51.895,39.911,51.895,26.384z"/>
		<path opacity="0.9268" fill="#AFAFAF" d="M51.701,26.148c0-13.525-10.967-24.495-24.493-24.495
			c-13.53,0-24.497,10.97-24.497,24.495c0,13.527,10.966,24.495,24.497,24.495C40.734,50.643,51.701,39.675,51.701,26.148z"/>
		<path opacity="0.9512" fill="#AFAFAF" d="M51.508,25.912c0-13.525-10.967-24.495-24.493-24.495
			c-13.531,0-24.497,10.97-24.497,24.495c0,13.526,10.966,24.494,24.497,24.494C40.541,50.406,51.508,39.438,51.508,25.912z"/>
		<path opacity="0.9756" fill="#AFAFAF" d="M51.315,25.676c0-13.525-10.967-24.495-24.494-24.495
			c-13.53,0-24.497,10.97-24.497,24.495c0,13.526,10.966,24.494,24.497,24.494C40.349,50.17,51.315,39.202,51.315,25.676z"/>
		<path id="XMLID_1_" fill="#AFAFAF" d="M51.122,25.439c0-13.525-10.967-24.495-24.493-24.495c-13.53,0-24.497,10.97-24.497,24.495
			c0,13.526,10.966,24.494,24.497,24.494C40.155,49.934,51.122,38.966,51.122,25.439z"/>
	</g>
	<g>
		<path id="XMLID_49_" fill="#00A9FF" d="M51.122,25.439c0-13.525-10.967-24.495-24.493-24.495c-13.53,0-24.497,10.97-24.497,24.495
			c0,13.526,10.966,24.494,24.497,24.494C40.155,49.934,51.122,38.966,51.122,25.439z"/>
		<path id="XMLID_47_" fill="#FFFFFF" d="M40.841,18.089c-0.98,0.398-2.032,0.67-3.125,0.8c1.16-0.683,2.063-1.743,2.536-3.011
			c0.03-0.08-0.058-0.152-0.133-0.112c-1.093,0.609-2.294,1.057-3.566,1.304c-1.084-1.14-2.632-1.851-4.347-1.851
			c-3.283,0-5.952,2.624-5.952,5.858c0,0.46,0.054,0.906,0.154,1.336c-4.931-0.246-9.304-2.564-12.24-6.087
			c-0.015-0.017-0.042-0.016-0.054,0.005c-0.493,0.857-0.782,1.849-0.782,2.905c0,1.986,1.007,3.744,2.545,4.806
			c0.03,0.02,0.015,0.067-0.022,0.065c-0.91-0.047-1.766-0.298-2.521-0.701c-0.022-0.012-0.048,0.002-0.046,0.027
			c0.015,0.257,0.098,1.405,0.403,2.143c0.75,1.829,2.367,3.227,4.372,3.624c-0.501,0.13-1.029,0.208-1.571,0.208
			c-0.362,0-0.718-0.037-1.066-0.1c-0.025-0.005-0.045,0.019-0.039,0.042c0.769,2.269,2.904,3.928,5.443,4.012
			c0.034,0.002,0.049,0.044,0.022,0.065c-2.026,1.536-4.556,2.449-7.314,2.449c-0.483,0-0.95-0.027-1.417-0.081
			c2.633,1.66,5.762,2.631,9.123,2.631c4.63,0,8.374-1.596,11.152-4.024c2.802-2.452,4.622-5.75,5.381-9.109
			c0.267-1.182,0.406-2.374,0.406-3.537c0-0.252-0.007-0.506-0.019-0.756c1.077-0.767,2.021-1.707,2.786-2.775
			C41.005,18.152,40.926,18.055,40.841,18.089z"/>
	</g>
</g>
</svg>
