<?xml version="1.0" encoding="utf-8"?>
<!-- Generator: Adobe Illustrator 16.0.0, SVG Export Plug-In . SVG Version: 6.00 Build 0)  -->
<!DOCTYPE svg PUBLIC "-//W3C//DTD SVG 1.1//EN" "http://www.w3.org/Graphics/SVG/1.1/DTD/svg11.dtd">
<svg version="1.1" id="Calque_1" xmlns="http://www.w3.org/2000/svg" xmlns:xlink="http://www.w3.org/1999/xlink" x="0px" y="0px"
	 width="178px" height="177px" viewBox="0 0 178 177" enable-background="new 0 0 178 177" xml:space="preserve">
<g>
	<path fill-rule="evenodd" clip-rule="evenodd" fill="#C2C2C2" d="M87.96,162.887c-0.88-0.111-1.76-0.231-2.641-0.333
		c-8.194-0.954-15.959-3.35-23.299-7.164c-6.511-3.383-12.353-7.708-17.476-13.001c-9.384-9.7-15.531-21.189-18.335-34.498
		c-1.521-7.22-1.897-14.511-1.093-21.84c1.705-15.545,7.826-29.063,18.427-40.423c9.825-10.529,21.776-17.343,35.777-20.25
		c15.229-3.163,29.917-1.317,43.949,5.533c6.555,3.201,12.439,7.397,17.649,12.551c10.439,10.326,17.062,22.748,19.75,37.295
		c0.428,2.311,0.627,4.665,0.935,6.999c0.014,0.108,0.064,0.21,0.097,0.315c0,3.596,0,7.192,0,10.788
		c-0.035,0.124-0.09,0.246-0.1,0.373c-0.295,3.761-0.886,7.474-1.804,11.128c-3.587,14.274-10.862,26.263-21.861,35.865
		c-10.591,9.246-22.876,14.667-36.76,16.336c-0.861,0.104-1.722,0.217-2.583,0.327C95.048,162.887,91.504,162.887,87.96,162.887z
		 M93.244,157.435c34.706-0.016,62.79-28.352,63.073-63.417c0.29-35.694-28.119-64.524-63.027-64.507
		C58.422,29.528,30.196,58.2,30.232,93.471C30.268,128.79,58.487,157.435,93.244,157.435z"/>
	<path fill-rule="evenodd" clip-rule="evenodd" fill="#C2C2C2" d="M137.116,80.24c0,8.85,0,17.622,0,26.486
		c-0.213,0-0.414,0-0.615,0c-2.249,0-4.496,0.009-6.745-0.008c-0.366-0.003-0.519,0.12-0.65,0.463
		c-3.577,9.368-9.765,16.38-18.554,20.991c-4.939,2.591-10.226,3.969-15.786,4.141c-10.548,0.327-19.746-3.13-27.527-10.359
		c-4.384-4.072-7.605-8.974-9.718-14.612c-0.176-0.47-0.379-0.639-0.887-0.631c-2.172,0.034-4.344,0.015-6.517,0.015
		c-0.206,0-0.413,0-0.661,0c0-8.832,0-17.617,0-26.486c0.201,0,0.403,0,0.604,0c2.172,0,4.345-0.018,6.517,0.014
		c0.518,0.007,0.75-0.147,0.942-0.649c3.604-9.358,9.826-16.342,18.637-20.911c5.094-2.642,10.535-3.999,16.26-4.083
		c10.931-0.16,20.29,3.702,28.05,11.495c3.799,3.815,6.625,8.305,8.528,13.376c0.215,0.571,0.462,0.789,1.085,0.775
		c2.114-0.045,4.229-0.017,6.344-0.017C136.631,80.24,136.839,80.24,137.116,80.24z M51.855,104.206c27.642,0,55.238,0,82.845,0
		c0-7.188,0-14.331,0-21.483c-27.633,0-55.228,0-82.845,0C51.855,89.895,51.855,97.022,51.855,104.206z M78.222,72.601
		c10.086,2.057,20.028,2.058,30.024,0.019c-0.081-0.245-0.126-0.433-0.203-0.606c-0.687-1.567-1.311-3.169-2.086-4.69
		c-1.507-2.956-3.39-5.641-6.003-7.719c-2.215-1.761-4.685-2.783-7.56-2.508c-2.257,0.215-4.191,1.205-5.929,2.623
		c-2.694,2.199-4.596,5.03-6.131,8.125C79.577,69.371,78.944,70.963,78.222,72.601z M108.371,114.34
		c-10.135-2.057-20.067-2.06-30.059-0.022c0.084,0.246,0.139,0.449,0.221,0.64c0.645,1.481,1.237,2.99,1.956,4.434
		c1.347,2.707,3.031,5.182,5.27,7.223c1.863,1.699,3.966,2.933,6.509,3.214c2.94,0.323,5.463-0.716,7.723-2.527
		c2.556-2.05,4.424-4.673,5.906-7.579C106.777,118,107.52,116.205,108.371,114.34z M77.487,111.976
		c10.565-2.186,21.033-2.185,31.587-0.002c0.432-1.739,0.857-3.451,1.295-5.212c-11.422,0-22.746,0-34.176,0
		C76.632,108.53,77.057,110.241,77.487,111.976z M109.074,74.955c-5.298,1.116-10.531,1.65-15.816,1.649
		c-5.283,0-10.514-0.545-15.772-1.646c-0.433,1.752-0.855,3.462-1.295,5.241c11.436,0,22.752,0,34.182,0
		C109.934,78.427,109.511,76.717,109.074,74.955z M112.853,106.746c-0.471,1.948-0.928,3.837-1.369,5.659
		c3.39,1.092,6.787,2.185,10.212,3.287c2.045-2.698,3.729-5.663,4.979-8.946C121.999,106.746,117.432,106.746,112.853,106.746z
		 M64.865,115.689c3.45-1.109,6.833-2.197,10.215-3.285c-0.443-1.825-0.906-3.728-1.372-5.645c-4.578,0-9.158,0-13.82,0
		C61.15,110.054,62.835,113.027,64.865,115.689z M64.898,71.259c-1.458,1.514-4.83,7.608-4.912,8.98c0.209,0,0.415,0,0.621,0
		c1.845,0,3.691,0,5.538,0c2.359,0,4.719,0.006,7.079-0.013c0.193-0.001,0.521-0.14,0.555-0.275
		c0.458-1.827,0.875-3.665,1.284-5.424C71.716,73.451,68.353,72.37,64.898,71.259z M111.497,74.528
		c0.388,1.665,0.809,3.384,1.176,5.115c0.1,0.469,0.268,0.612,0.743,0.609c4.205-0.02,8.411-0.012,12.616-0.012
		c0.185,0,0.37,0,0.661,0c-1.279-3.353-2.969-6.335-5-8.991C118.245,72.357,114.881,73.44,111.497,74.528z M84.371,128.683
		c-4.163-3.847-6.596-8.651-8.469-13.821c-3.174,0.775-6.253,1.721-9.279,2.917C70.144,122.375,79.43,128.104,84.371,128.683z
		 M102.322,128.658c6.939-1.814,12.793-5.451,17.744-10.963c-3.194-1-6.273-1.964-9.37-2.934
		C108.78,120.038,106.357,124.831,102.322,128.658z M84.261,58.267c-6.955,1.821-12.804,5.455-17.763,10.976
		c3.201,1.003,6.275,1.965,9.37,2.935C77.783,66.877,80.228,62.084,84.261,58.267z M110.662,72.081
		c3.167-0.786,6.249-1.717,9.318-2.939c-4.889-5.421-10.731-9.058-17.674-10.868C106.351,62.091,108.779,66.9,110.662,72.081z"/>
	<path fill-rule="evenodd" clip-rule="evenodd" fill="#C2C2C2" d="M110.558,86.389c0.787,0,1.49-0.034,2.184,0.026
		c0.163,0.014,0.377,0.323,0.436,0.534c0.904,3.27,1.788,6.545,2.676,9.818c0.048,0.178,0.108,0.353,0.195,0.638
		c0.992-3.733,1.954-7.358,2.92-10.994c0.84,0,1.636,0,2.465,0c0.903,3.529,1.802,7.045,2.702,10.563c0.045,0,0.091,0,0.137,0
		c0.28-0.95,0.563-1.898,0.84-2.848c0.703-2.406,1.414-4.809,2.095-7.222c0.117-0.415,0.303-0.551,0.714-0.526
		c0.565,0.035,1.132,0.009,1.781,0.009c-0.438,1.415-0.849,2.751-1.261,4.087c-0.982,3.185-1.972,6.368-2.938,9.559
		c-0.114,0.376-0.254,0.54-0.661,0.516c-0.645-0.037-1.292-0.01-1.991-0.01c-0.915-3.54-1.822-7.055-2.76-10.683
		c-0.938,3.611-1.851,7.129-2.773,10.681c-0.754,0-1.478,0.029-2.196-0.021c-0.156-0.011-0.369-0.278-0.427-0.467
		c-0.963-3.131-1.906-6.268-2.854-9.404C111.426,89.265,111.009,87.883,110.558,86.389z"/>
	<path fill-rule="evenodd" clip-rule="evenodd" fill="#C2C2C2" d="M93.257,89.802c-0.947,3.649-1.865,7.186-2.784,10.722
		c-0.854,0-1.652,0-2.501,0c-1.411-4.675-2.822-9.353-4.262-14.126c0.805,0,1.557-0.024,2.306,0.025
		c0.119,0.007,0.262,0.331,0.317,0.53c0.893,3.252,1.772,6.507,2.656,9.762c0.05,0.185,0.106,0.368,0.208,0.719
		c0.106-0.354,0.175-0.559,0.229-0.768c0.856-3.261,1.716-6.522,2.558-9.788c0.101-0.39,0.277-0.521,0.67-0.5
		c0.625,0.035,1.254,0.009,1.923,0.009c0.91,3.56,1.815,7.097,2.719,10.635c0.039-0.002,0.078-0.004,0.116-0.006
		c0.544-1.857,1.087-3.714,1.631-5.571c0.449-1.535,0.911-3.067,1.339-4.607c0.095-0.341,0.234-0.475,0.586-0.458
		c0.601,0.026,1.203,0.007,1.883,0.007c-0.485,1.573-0.943,3.058-1.401,4.542c-0.929,3.018-1.866,6.035-2.778,9.06
		c-0.126,0.421-0.304,0.602-0.751,0.56c-0.453-0.043-0.916-0.039-1.369-0.001c-0.425,0.036-0.593-0.133-0.694-0.541
		c-0.807-3.234-1.634-6.464-2.457-9.695C93.37,90.184,93.33,90.056,93.257,89.802z"/>
	<path fill-rule="evenodd" clip-rule="evenodd" fill="#C2C2C2" d="M76.003,86.388c-0.964,3.133-1.894,6.151-2.822,9.169
		c-0.459,1.491-0.923,2.982-1.368,4.478c-0.106,0.359-0.251,0.556-0.669,0.516c-0.472-0.044-0.954-0.037-1.427-0.002
		c-0.412,0.03-0.6-0.107-0.706-0.529c-0.803-3.236-1.632-6.468-2.454-9.7c-0.032-0.129-0.075-0.255-0.151-0.511
		c-0.457,1.758-0.881,3.391-1.306,5.024c-0.451,1.736-0.917,3.467-1.34,5.21c-0.099,0.406-0.268,0.533-0.66,0.505
		c-0.475-0.033-0.954-0.035-1.428,0.001c-0.414,0.032-0.59-0.122-0.709-0.527c-1.165-3.916-2.352-7.825-3.53-11.736
		c-0.182-0.604-0.362-1.207-0.558-1.859c0.848,0,1.638,0,2.466,0c0.984,3.613,1.967,7.226,2.95,10.838
		c0.039-0.003,0.076-0.006,0.114-0.01c0.361-1.389,0.718-2.779,1.085-4.167c0.542-2.051,1.104-4.095,1.628-6.15
		c0.111-0.439,0.3-0.597,0.743-0.56c0.604,0.051,1.381-0.186,1.771,0.117c0.387,0.3,0.401,1.111,0.554,1.704
		c0.727,2.819,1.446,5.641,2.169,8.46c0.033,0.127,0.085,0.25,0.168,0.49c0.538-1.838,1.043-3.565,1.55-5.293
		c0.487-1.665,0.988-3.327,1.452-4.999c0.103-0.372,0.259-0.496,0.627-0.478C74.738,86.408,75.325,86.388,76.003,86.388z"/>
</g>
</svg>
